<svg width="292" height="500" viewBox="0 0 292 500" fill="none" xmlns="http://www.w3.org/2000/svg">
<rect width="292" height="500" rx="24" fill="white"/>
<path d="M42.4538 346.4H44.5598V359H42.4538V346.4ZM47.1237 350.018H49.0497V351.188C49.3137 350.792 49.6617 350.474 50.0937 350.234C50.5257 349.994 50.9577 349.874 51.3897 349.874H52.5057C53.4297 349.874 54.1677 350.168 54.7197 350.756C55.2837 351.344 55.5657 352.118 55.5657 353.078V359H53.4957V353.132C53.4957 352.7 53.3817 352.352 53.1537 352.088C52.9377 351.812 52.6497 351.674 52.2897 351.674H51.1737C50.7057 351.674 50.2857 351.854 49.9137 352.214C49.5417 352.562 49.3017 353.012 49.1937 353.564V359H47.1237V350.018ZM59.1084 349.01C58.7004 349.01 58.3704 348.89 58.1184 348.65C57.8784 348.398 57.7584 348.08 57.7584 347.696C57.7584 347.312 57.8784 347 58.1184 346.76C58.3704 346.508 58.7004 346.382 59.1084 346.382C59.5164 346.382 59.8464 346.508 60.0984 346.76C60.3504 347 60.4764 347.312 60.4764 347.696C60.4764 348.08 60.3504 348.398 60.0984 348.65C59.8464 348.89 59.5164 349.01 59.1084 349.01ZM58.0824 350.018H60.1524V359H58.0824V350.018ZM66.0798 359.144C64.9758 359.144 64.0878 358.826 63.4158 358.19C62.7558 357.554 62.4258 356.714 62.4258 355.67V353.402C62.4258 352.706 62.5758 352.094 62.8758 351.566C63.1758 351.026 63.6018 350.612 64.1538 350.324C64.7058 350.024 65.3418 349.874 66.0618 349.874H67.5018C68.5338 349.874 69.3618 350.174 69.9858 350.774C70.6218 351.362 70.9398 352.142 70.9398 353.114H68.9058C68.9058 352.682 68.7738 352.334 68.5098 352.07C68.2578 351.794 67.9218 351.656 67.5018 351.656H66.0798C65.6118 351.656 65.2278 351.83 64.9278 352.178C64.6398 352.526 64.4958 352.976 64.4958 353.528V355.544C64.4958 356.084 64.6398 356.522 64.9278 356.858C65.2278 357.194 65.6178 357.362 66.0978 357.362H67.5198C67.9638 357.362 68.3178 357.2 68.5818 356.876C68.8578 356.552 68.9958 356.132 68.9958 355.616H71.0298C71.0298 356.672 70.7058 357.524 70.0578 358.172C69.4218 358.82 68.5758 359.144 67.5198 359.144H66.0798ZM74.0674 349.01C73.6594 349.01 73.3294 348.89 73.0774 348.65C72.8374 348.398 72.7174 348.08 72.7174 347.696C72.7174 347.312 72.8374 347 73.0774 346.76C73.3294 346.508 73.6594 346.382 74.0674 346.382C74.4754 346.382 74.8054 346.508 75.0574 346.76C75.3094 347 75.4354 347.312 75.4354 347.696C75.4354 348.08 75.3094 348.398 75.0574 348.65C74.8054 348.89 74.4754 349.01 74.0674 349.01ZM73.0414 350.018H75.1114V359H73.0414V350.018ZM80.4988 359.144C79.5868 359.144 78.8488 358.916 78.2848 358.46C77.7328 357.992 77.4568 357.374 77.4568 356.606V355.958C77.4568 355.202 77.7448 354.596 78.3208 354.14C78.9088 353.684 79.6768 353.456 80.6248 353.456H81.7408C82.0768 353.456 82.4368 353.504 82.8208 353.6C83.2048 353.696 83.5468 353.822 83.8468 353.978V352.862C83.8468 352.49 83.7268 352.19 83.4868 351.962C83.2468 351.734 82.9348 351.62 82.5508 351.62H81.0388C80.6428 351.62 80.3248 351.716 80.0848 351.908C79.8448 352.088 79.7248 352.328 79.7248 352.628H77.7088C77.7088 351.8 78.0148 351.134 78.6268 350.63C79.2388 350.126 80.0428 349.874 81.0388 349.874H82.5508C83.5588 349.874 84.3688 350.15 84.9808 350.702C85.5928 351.242 85.8988 351.962 85.8988 352.862V359H83.9728V357.866C83.6848 358.25 83.3248 358.562 82.8928 358.802C82.4608 359.03 82.0348 359.144 81.6148 359.144H80.4988ZM81.7408 357.524C82.2208 357.524 82.6528 357.392 83.0368 357.128C83.4208 356.852 83.6908 356.492 83.8468 356.048V355.616C83.6428 355.448 83.3548 355.316 82.9828 355.22C82.6108 355.112 82.2208 355.058 81.8128 355.058H80.6788C80.3188 355.058 80.0248 355.148 79.7968 355.328C79.5808 355.508 79.4728 355.742 79.4728 356.03V356.534C79.4728 356.834 79.5868 357.074 79.8148 357.254C80.0428 357.434 80.3428 357.524 80.7148 357.524H81.7408ZM88.0983 350.018H90.0243V351.188C90.2883 350.792 90.6363 350.474 91.0683 350.234C91.5003 349.994 91.9323 349.874 92.3643 349.874H93.4803C94.4043 349.874 95.1423 350.168 95.6943 350.756C96.2583 351.344 96.5403 352.118 96.5403 353.078V359H94.4703V353.132C94.4703 352.7 94.3563 352.352 94.1283 352.088C93.9123 351.812 93.6243 351.674 93.2643 351.674H92.1483C91.6803 351.674 91.2603 351.854 90.8883 352.214C90.5163 352.562 90.2763 353.012 90.1683 353.564V359H88.0983V350.018ZM101.793 359.144C100.773 359.144 99.9451 358.826 99.3091 358.19C98.6851 357.542 98.3731 356.696 98.3731 355.652V353.564C98.3731 352.832 98.5231 352.19 98.8231 351.638C99.1231 351.074 99.5431 350.642 100.083 350.342C100.635 350.03 101.265 349.874 101.973 349.874H103.071C103.443 349.874 103.809 349.958 104.169 350.126C104.541 350.294 104.847 350.516 105.087 350.792V346.4H107.139V359H105.213V357.758C104.961 358.178 104.625 358.514 104.205 358.766C103.785 359.018 103.359 359.144 102.927 359.144H101.793ZM103.089 357.362C103.605 357.362 104.049 357.158 104.421 356.75C104.805 356.33 105.027 355.814 105.087 355.202V353.402C105.003 352.886 104.799 352.466 104.475 352.142C104.163 351.818 103.785 351.656 103.341 351.656H102.189C101.661 351.656 101.235 351.842 100.911 352.214C100.599 352.586 100.443 353.072 100.443 353.672V355.526C100.443 356.078 100.587 356.522 100.875 356.858C101.175 357.194 101.553 357.362 102.009 357.362H103.089ZM112.75 359.144C111.646 359.144 110.758 358.826 110.086 358.19C109.414 357.542 109.078 356.69 109.078 355.634V353.402C109.078 352.706 109.228 352.094 109.528 351.566C109.84 351.026 110.272 350.612 110.824 350.324C111.388 350.024 112.036 349.874 112.768 349.874H114.352C115.084 349.874 115.726 350.024 116.278 350.324C116.842 350.612 117.274 351.026 117.574 351.566C117.886 352.094 118.042 352.706 118.042 353.402V355.634C118.042 356.69 117.7 357.542 117.016 358.19C116.344 358.826 115.444 359.144 114.316 359.144H112.75ZM114.298 357.362C114.802 357.362 115.204 357.194 115.504 356.858C115.816 356.51 115.972 356.06 115.972 355.508V353.51C115.972 352.958 115.822 352.514 115.522 352.178C115.222 351.83 114.82 351.656 114.316 351.656H112.804C112.3 351.656 111.898 351.83 111.598 352.178C111.298 352.514 111.148 352.958 111.148 353.51V355.508C111.148 356.06 111.298 356.51 111.598 356.858C111.898 357.194 112.288 357.362 112.768 357.362H114.298ZM128.306 359.144C127.202 359.144 126.314 358.826 125.642 358.19C124.982 357.554 124.652 356.714 124.652 355.67V353.402C124.652 352.706 124.802 352.094 125.102 351.566C125.402 351.026 125.828 350.612 126.38 350.324C126.932 350.024 127.568 349.874 128.288 349.874H129.728C130.76 349.874 131.588 350.174 132.212 350.774C132.848 351.362 133.166 352.142 133.166 353.114H131.132C131.132 352.682 131 352.334 130.736 352.07C130.484 351.794 130.148 351.656 129.728 351.656H128.306C127.838 351.656 127.454 351.83 127.154 352.178C126.866 352.526 126.722 352.976 126.722 353.528V355.544C126.722 356.084 126.866 356.522 127.154 356.858C127.454 357.194 127.844 357.362 128.324 357.362H129.746C130.19 357.362 130.544 357.2 130.808 356.876C131.084 356.552 131.222 356.132 131.222 355.616H133.256C133.256 356.672 132.932 357.524 132.284 358.172C131.648 358.82 130.802 359.144 129.746 359.144H128.306ZM138.256 359.144C137.152 359.144 136.264 358.826 135.592 358.19C134.92 357.542 134.584 356.69 134.584 355.634V353.402C134.584 352.706 134.734 352.094 135.034 351.566C135.346 351.026 135.778 350.612 136.33 350.324C136.894 350.024 137.542 349.874 138.274 349.874H139.858C140.59 349.874 141.232 350.024 141.784 350.324C142.348 350.612 142.78 351.026 143.08 351.566C143.392 352.094 143.548 352.706 143.548 353.402V355.634C143.548 356.69 143.206 357.542 142.522 358.19C141.85 358.826 140.95 359.144 139.822 359.144H138.256ZM139.804 357.362C140.308 357.362 140.71 357.194 141.01 356.858C141.322 356.51 141.478 356.06 141.478 355.508V353.51C141.478 352.958 141.328 352.514 141.028 352.178C140.728 351.83 140.326 351.656 139.822 351.656H138.31C137.806 351.656 137.404 351.83 137.104 352.178C136.804 352.514 136.654 352.958 136.654 353.51V355.508C136.654 356.06 136.804 356.51 137.104 356.858C137.404 357.194 137.794 357.362 138.274 357.362H139.804ZM145.491 350.018H147.417V351.188C147.681 350.792 148.029 350.474 148.461 350.234C148.893 349.994 149.325 349.874 149.757 349.874H150.873C151.797 349.874 152.535 350.168 153.087 350.756C153.651 351.344 153.933 352.118 153.933 353.078V359H151.863V353.132C151.863 352.7 151.749 352.352 151.521 352.088C151.305 351.812 151.017 351.674 150.657 351.674H149.541C149.073 351.674 148.653 351.854 148.281 352.214C147.909 352.562 147.669 353.012 147.561 353.564V359H145.491V350.018ZM159.456 359.144C158.724 359.144 158.076 359.006 157.512 358.73C156.96 358.454 156.528 358.064 156.216 357.56C155.916 357.056 155.766 356.474 155.766 355.814V353.402C155.766 352.706 155.916 352.094 156.216 351.566C156.528 351.026 156.96 350.612 157.512 350.324C158.076 350.024 158.724 349.874 159.456 349.874H160.896C161.988 349.874 162.864 350.192 163.524 350.828C164.184 351.464 164.514 352.31 164.514 353.366V355.166H157.836V355.814C157.836 356.294 157.98 356.678 158.268 356.966C158.568 357.254 158.964 357.398 159.456 357.398H160.842C161.322 357.398 161.706 357.284 161.994 357.056C162.294 356.816 162.444 356.504 162.444 356.12H164.478C164.478 357.032 164.142 357.764 163.47 358.316C162.798 358.868 161.916 359.144 160.824 359.144H159.456ZM162.48 353.618V353.366C162.48 352.838 162.336 352.412 162.048 352.088C161.76 351.764 161.382 351.602 160.914 351.602H159.456C158.964 351.602 158.562 351.776 158.25 352.124C157.95 352.46 157.8 352.904 157.8 353.456V353.618H162.48ZM168.414 354.428L165.138 350.018H167.442L169.602 352.916L171.762 350.018H174.066L170.79 354.428L174.192 359H171.87L169.602 355.94L167.334 359H165.012L168.414 354.428ZM177.882 359.144C176.97 359.144 176.232 358.916 175.668 358.46C175.116 357.992 174.84 357.374 174.84 356.606V355.958C174.84 355.202 175.128 354.596 175.704 354.14C176.292 353.684 177.06 353.456 178.008 353.456H179.124C179.46 353.456 179.82 353.504 180.204 353.6C180.588 353.696 180.93 353.822 181.23 353.978V352.862C181.23 352.49 181.11 352.19 180.87 351.962C180.63 351.734 180.318 351.62 179.934 351.62H178.422C178.026 351.62 177.708 351.716 177.468 351.908C177.228 352.088 177.108 352.328 177.108 352.628H175.092C175.092 351.8 175.398 351.134 176.01 350.63C176.622 350.126 177.426 349.874 178.422 349.874H179.934C180.942 349.874 181.752 350.15 182.364 350.702C182.976 351.242 183.282 351.962 183.282 352.862V359H181.356V357.866C181.068 358.25 180.708 358.562 180.276 358.802C179.844 359.03 179.418 359.144 178.998 359.144H177.882ZM179.124 357.524C179.604 357.524 180.036 357.392 180.42 357.128C180.804 356.852 181.074 356.492 181.23 356.048V355.616C181.026 355.448 180.738 355.316 180.366 355.22C179.994 355.112 179.604 355.058 179.196 355.058H178.062C177.702 355.058 177.408 355.148 177.18 355.328C176.964 355.508 176.856 355.742 176.856 356.03V356.534C176.856 356.834 176.97 357.074 177.198 357.254C177.426 357.434 177.726 357.524 178.098 357.524H179.124ZM180.384 348.848C180.108 348.848 179.862 348.788 179.646 348.668C179.442 348.536 179.214 348.362 178.962 348.146C178.806 348.002 178.674 347.894 178.566 347.822C178.458 347.75 178.35 347.714 178.242 347.714H178.116C177.948 347.714 177.81 347.804 177.702 347.984C177.606 348.152 177.552 348.374 177.54 348.65H176.01C176.01 347.942 176.196 347.366 176.568 346.922C176.94 346.478 177.426 346.256 178.026 346.256H178.17C178.458 346.256 178.71 346.322 178.926 346.454C179.142 346.586 179.382 346.766 179.646 346.994C179.79 347.126 179.91 347.228 180.006 347.3C180.102 347.36 180.192 347.39 180.276 347.39H180.42C180.564 347.39 180.684 347.306 180.78 347.138C180.888 346.97 180.948 346.742 180.96 346.454H182.472C182.472 347.174 182.292 347.756 181.932 348.2C181.572 348.632 181.098 348.848 180.51 348.848H180.384ZM188.793 359.144C187.689 359.144 186.801 358.826 186.129 358.19C185.457 357.542 185.121 356.69 185.121 355.634V353.402C185.121 352.706 185.271 352.094 185.571 351.566C185.883 351.026 186.315 350.612 186.867 350.324C187.431 350.024 188.079 349.874 188.811 349.874H190.395C191.127 349.874 191.769 350.024 192.321 350.324C192.885 350.612 193.317 351.026 193.617 351.566C193.929 352.094 194.085 352.706 194.085 353.402V355.634C194.085 356.69 193.743 357.542 193.059 358.19C192.387 358.826 191.487 359.144 190.359 359.144H188.793ZM190.341 357.362C190.845 357.362 191.247 357.194 191.547 356.858C191.859 356.51 192.015 356.06 192.015 355.508V353.51C192.015 352.958 191.865 352.514 191.565 352.178C191.265 351.83 190.863 351.656 190.359 351.656H188.847C188.343 351.656 187.941 351.83 187.641 352.178C187.341 352.514 187.191 352.958 187.191 353.51V355.508C187.191 356.06 187.341 356.51 187.641 356.858C187.941 357.194 188.331 357.362 188.811 357.362H190.341ZM204.349 359.144C203.245 359.144 202.357 358.826 201.685 358.19C201.025 357.554 200.695 356.714 200.695 355.67V353.402C200.695 352.706 200.845 352.094 201.145 351.566C201.445 351.026 201.871 350.612 202.423 350.324C202.975 350.024 203.611 349.874 204.331 349.874H205.771C206.803 349.874 207.631 350.174 208.255 350.774C208.891 351.362 209.209 352.142 209.209 353.114H207.175C207.175 352.682 207.043 352.334 206.779 352.07C206.527 351.794 206.191 351.656 205.771 351.656H204.349C203.881 351.656 203.497 351.83 203.197 352.178C202.909 352.526 202.765 352.976 202.765 353.528V355.544C202.765 356.084 202.909 356.522 203.197 356.858C203.497 357.194 203.887 357.362 204.367 357.362H205.789C206.233 357.362 206.587 357.2 206.851 356.876C207.127 356.552 207.265 356.132 207.265 355.616H209.299C209.299 356.672 208.975 357.524 208.327 358.172C207.691 358.82 206.845 359.144 205.789 359.144H204.349ZM214.299 359.144C213.195 359.144 212.307 358.826 211.635 358.19C210.963 357.542 210.627 356.69 210.627 355.634V353.402C210.627 352.706 210.777 352.094 211.077 351.566C211.389 351.026 211.821 350.612 212.373 350.324C212.937 350.024 213.585 349.874 214.317 349.874H215.901C216.633 349.874 217.275 350.024 217.827 350.324C218.391 350.612 218.823 351.026 219.123 351.566C219.435 352.094 219.591 352.706 219.591 353.402V355.634C219.591 356.69 219.249 357.542 218.565 358.19C217.893 358.826 216.993 359.144 215.865 359.144H214.299ZM215.847 357.362C216.351 357.362 216.753 357.194 217.053 356.858C217.365 356.51 217.521 356.06 217.521 355.508V353.51C217.521 352.958 217.371 352.514 217.071 352.178C216.771 351.83 216.369 351.656 215.865 351.656H214.353C213.849 351.656 213.447 351.83 213.147 352.178C212.847 352.514 212.697 352.958 212.697 353.51V355.508C212.697 356.06 212.847 356.51 213.147 356.858C213.447 357.194 213.837 357.362 214.317 357.362H215.847ZM231.65 349.874C232.526 349.874 233.222 350.156 233.738 350.72C234.266 351.284 234.53 352.04 234.53 352.988V359H232.46V352.97C232.46 352.574 232.37 352.262 232.19 352.034C232.01 351.794 231.77 351.674 231.47 351.674H230.606C230.21 351.674 229.874 351.818 229.598 352.106C229.322 352.382 229.142 352.76 229.058 353.24V359H227.006V353.024C227.006 352.616 226.916 352.292 226.736 352.052C226.556 351.8 226.316 351.674 226.016 351.674H225.206C224.81 351.674 224.462 351.854 224.162 352.214C223.874 352.562 223.688 353.018 223.604 353.582V359H221.534V350.018H223.46V351.152C223.688 350.756 223.976 350.444 224.324 350.216C224.672 349.988 225.026 349.874 225.386 349.874H226.412C226.868 349.874 227.276 349.994 227.636 350.234C227.996 350.462 228.278 350.786 228.482 351.206C228.746 350.786 229.064 350.462 229.436 350.234C229.808 349.994 230.204 349.874 230.624 349.874H231.65ZM244.503 359.144C243.591 359.144 242.853 358.916 242.289 358.46C241.737 357.992 241.461 357.374 241.461 356.606V355.958C241.461 355.202 241.749 354.596 242.325 354.14C242.913 353.684 243.681 353.456 244.629 353.456H245.745C246.081 353.456 246.441 353.504 246.825 353.6C247.209 353.696 247.551 353.822 247.851 353.978V352.862C247.851 352.49 247.731 352.19 247.491 351.962C247.251 351.734 246.939 351.62 246.555 351.62H245.043C244.647 351.62 244.329 351.716 244.089 351.908C243.849 352.088 243.729 352.328 243.729 352.628H241.713C241.713 351.8 242.019 351.134 242.631 350.63C243.243 350.126 244.047 349.874 245.043 349.874H246.555C247.563 349.874 248.373 350.15 248.985 350.702C249.597 351.242 249.903 351.962 249.903 352.862V359H247.977V357.866C247.689 358.25 247.329 358.562 246.897 358.802C246.465 359.03 246.039 359.144 245.619 359.144H244.503ZM245.745 357.524C246.225 357.524 246.657 357.392 247.041 357.128C247.425 356.852 247.695 356.492 247.851 356.048V355.616C247.647 355.448 247.359 355.316 246.987 355.22C246.615 355.112 246.225 355.058 245.817 355.058H244.683C244.323 355.058 244.029 355.148 243.801 355.328C243.585 355.508 243.477 355.742 243.477 356.03V356.534C243.477 356.834 243.591 357.074 243.819 357.254C244.047 357.434 244.347 357.524 244.719 357.524H245.745ZM40.611 370.018H42.537V371.08C42.789 370.72 43.113 370.432 43.509 370.216C43.917 369.988 44.313 369.874 44.697 369.874H45.885C46.929 369.874 47.769 370.192 48.405 370.828C49.053 371.452 49.377 372.28 49.377 373.312V375.4C49.377 376.528 49.059 377.434 48.423 378.118C47.787 378.802 46.941 379.144 45.885 379.144H44.679C44.331 379.144 43.971 379.06 43.599 378.892C43.227 378.712 42.921 378.478 42.681 378.19V382.6H40.611V370.018ZM45.669 377.362C46.161 377.362 46.557 377.17 46.857 376.786C47.169 376.402 47.325 375.898 47.325 375.274V373.438C47.325 372.91 47.175 372.484 46.875 372.16C46.575 371.824 46.179 371.656 45.687 371.656H44.535C44.127 371.656 43.749 371.818 43.401 372.142C43.065 372.454 42.825 372.862 42.681 373.366V375.454C42.741 376.018 42.939 376.48 43.275 376.84C43.623 377.188 44.037 377.362 44.517 377.362H45.669ZM54.2141 379C53.2061 379 52.4681 378.79 52.0001 378.37C51.5441 377.938 51.3161 377.26 51.3161 376.336V366.4H53.3861V376.246C53.3861 376.594 53.4581 376.846 53.6021 377.002C53.7461 377.146 53.9861 377.218 54.3221 377.218H55.1861V379H54.2141ZM59.238 379.144C58.326 379.144 57.588 378.916 57.024 378.46C56.472 377.992 56.196 377.374 56.196 376.606V375.958C56.196 375.202 56.484 374.596 57.06 374.14C57.648 373.684 58.416 373.456 59.364 373.456H60.48C60.816 373.456 61.176 373.504 61.56 373.6C61.944 373.696 62.286 373.822 62.586 373.978V372.862C62.586 372.49 62.466 372.19 62.226 371.962C61.986 371.734 61.674 371.62 61.29 371.62H59.778C59.382 371.62 59.064 371.716 58.824 371.908C58.584 372.088 58.464 372.328 58.464 372.628H56.448C56.448 371.8 56.754 371.134 57.366 370.63C57.978 370.126 58.782 369.874 59.778 369.874H61.29C62.298 369.874 63.108 370.15 63.72 370.702C64.332 371.242 64.638 371.962 64.638 372.862V379H62.712V377.866C62.424 378.25 62.064 378.562 61.632 378.802C61.2 379.03 60.774 379.144 60.354 379.144H59.238ZM60.48 377.524C60.96 377.524 61.392 377.392 61.776 377.128C62.16 376.852 62.43 376.492 62.586 376.048V375.616C62.382 375.448 62.094 375.316 61.722 375.22C61.35 375.112 60.96 375.058 60.552 375.058H59.418C59.058 375.058 58.764 375.148 58.536 375.328C58.32 375.508 58.212 375.742 58.212 376.03V376.534C58.212 376.834 58.326 377.074 58.554 377.254C58.782 377.434 59.082 377.524 59.454 377.524H60.48ZM70.6355 379C69.6155 379 68.8715 378.772 68.4035 378.316C67.9355 377.86 67.7015 377.14 67.7015 376.156V371.8H66.1175V370.018H67.7555V367.3H69.7715V370.018H72.1115V371.8H69.7715V376.084C69.7715 376.48 69.8495 376.768 70.0055 376.948C70.1615 377.128 70.4075 377.218 70.7435 377.218H72.1115V379H70.6355ZM76.6052 379.144C75.6932 379.144 74.9552 378.916 74.3912 378.46C73.8392 377.992 73.5632 377.374 73.5632 376.606V375.958C73.5632 375.202 73.8512 374.596 74.4272 374.14C75.0152 373.684 75.7832 373.456 76.7312 373.456H77.8472C78.1832 373.456 78.5432 373.504 78.9272 373.6C79.3112 373.696 79.6532 373.822 79.9532 373.978V372.862C79.9532 372.49 79.8332 372.19 79.5932 371.962C79.3532 371.734 79.0412 371.62 78.6572 371.62H77.1452C76.7492 371.62 76.4312 371.716 76.1912 371.908C75.9512 372.088 75.8312 372.328 75.8312 372.628H73.8152C73.8152 371.8 74.1212 371.134 74.7332 370.63C75.3452 370.126 76.1492 369.874 77.1452 369.874H78.6572C79.6652 369.874 80.4752 370.15 81.0872 370.702C81.6992 371.242 82.0052 371.962 82.0052 372.862V379H80.0792V377.866C79.7912 378.25 79.4312 378.562 78.9992 378.802C78.5672 379.03 78.1412 379.144 77.7212 379.144H76.6052ZM77.8472 377.524C78.3272 377.524 78.7592 377.392 79.1432 377.128C79.5272 376.852 79.7972 376.492 79.9532 376.048V375.616C79.7492 375.448 79.4612 375.316 79.0892 375.22C78.7172 375.112 78.3272 375.058 77.9192 375.058H76.7852C76.4252 375.058 76.1312 375.148 75.9032 375.328C75.6872 375.508 75.5792 375.742 75.5792 376.03V376.534C75.5792 376.834 75.6932 377.074 75.9212 377.254C76.1492 377.434 76.4492 377.524 76.8212 377.524H77.8472ZM84.9453 371.8H83.3973V370.018H84.9453V369.388C84.9453 368.416 85.2333 367.666 85.8093 367.138C86.3973 366.598 87.2193 366.328 88.2753 366.328H89.3733V368.092H88.3113C87.8673 368.092 87.5373 368.2 87.3213 368.416C87.1173 368.62 87.0153 368.95 87.0153 369.406V370.018H89.1753V371.8H87.0153V379H84.9453V371.8ZM93.6339 379.144C92.5299 379.144 91.6419 378.826 90.9699 378.19C90.2979 377.542 89.9619 376.69 89.9619 375.634V373.402C89.9619 372.706 90.1119 372.094 90.4119 371.566C90.7239 371.026 91.1559 370.612 91.7079 370.324C92.2719 370.024 92.9199 369.874 93.6519 369.874H95.2359C95.9679 369.874 96.6099 370.024 97.1619 370.324C97.7259 370.612 98.1579 371.026 98.4579 371.566C98.7699 372.094 98.9259 372.706 98.9259 373.402V375.634C98.9259 376.69 98.5839 377.542 97.8999 378.19C97.2279 378.826 96.3279 379.144 95.1999 379.144H93.6339ZM95.1819 377.362C95.6859 377.362 96.0879 377.194 96.3879 376.858C96.6999 376.51 96.8559 376.06 96.8559 375.508V373.51C96.8559 372.958 96.7059 372.514 96.4059 372.178C96.1059 371.83 95.7039 371.656 95.1999 371.656H93.6879C93.1839 371.656 92.7819 371.83 92.4819 372.178C92.1819 372.514 92.0319 372.958 92.0319 373.51V375.508C92.0319 376.06 92.1819 376.51 92.4819 376.858C92.7819 377.194 93.1719 377.362 93.6519 377.362H95.1819ZM100.869 370.018H102.795V371.242C103.035 370.87 103.377 370.57 103.821 370.342C104.277 370.102 104.745 369.982 105.225 369.982H106.305V371.782H105.225C104.541 371.782 103.989 371.992 103.569 372.412C103.149 372.832 102.939 373.378 102.939 374.05V379H100.869V370.018ZM117.717 369.874C118.593 369.874 119.289 370.156 119.805 370.72C120.333 371.284 120.597 372.04 120.597 372.988V379H118.527V372.97C118.527 372.574 118.437 372.262 118.257 372.034C118.077 371.794 117.837 371.674 117.537 371.674H116.673C116.277 371.674 115.941 371.818 115.665 372.106C115.389 372.382 115.209 372.76 115.125 373.24V379H113.073V373.024C113.073 372.616 112.983 372.292 112.803 372.052C112.623 371.8 112.383 371.674 112.083 371.674H111.273C110.877 371.674 110.529 371.854 110.229 372.214C109.941 372.562 109.755 373.018 109.671 373.582V379H107.601V370.018H109.527V371.152C109.755 370.756 110.043 370.444 110.391 370.216C110.739 369.988 111.093 369.874 111.453 369.874H112.479C112.935 369.874 113.343 369.994 113.703 370.234C114.063 370.462 114.345 370.786 114.549 371.206C114.813 370.786 115.131 370.462 115.503 370.234C115.875 369.994 116.271 369.874 116.691 369.874H117.717ZM125.543 379.144C124.631 379.144 123.893 378.916 123.329 378.46C122.777 377.992 122.501 377.374 122.501 376.606V375.958C122.501 375.202 122.789 374.596 123.365 374.14C123.953 373.684 124.721 373.456 125.669 373.456H126.785C127.121 373.456 127.481 373.504 127.865 373.6C128.249 373.696 128.591 373.822 128.891 373.978V372.862C128.891 372.49 128.771 372.19 128.531 371.962C128.291 371.734 127.979 371.62 127.595 371.62H126.083C125.687 371.62 125.369 371.716 125.129 371.908C124.889 372.088 124.769 372.328 124.769 372.628H122.753C122.753 371.8 123.059 371.134 123.671 370.63C124.283 370.126 125.087 369.874 126.083 369.874H127.595C128.603 369.874 129.413 370.15 130.025 370.702C130.637 371.242 130.943 371.962 130.943 372.862V379H129.017V377.866C128.729 378.25 128.369 378.562 127.937 378.802C127.505 379.03 127.079 379.144 126.659 379.144H125.543ZM126.785 377.524C127.265 377.524 127.697 377.392 128.081 377.128C128.465 376.852 128.735 376.492 128.891 376.048V375.616C128.687 375.448 128.399 375.316 128.027 375.22C127.655 375.112 127.265 375.058 126.857 375.058H125.723C125.363 375.058 125.069 375.148 124.841 375.328C124.625 375.508 124.517 375.742 124.517 376.03V376.534C124.517 376.834 124.631 377.074 124.859 377.254C125.087 377.434 125.387 377.524 125.759 377.524H126.785ZM141.14 379.144C140.108 379.144 139.28 378.868 138.656 378.316C138.032 377.764 137.72 377.032 137.72 376.12H139.754C139.754 376.504 139.88 376.816 140.132 377.056C140.384 377.284 140.72 377.398 141.14 377.398H142.742C143.15 377.398 143.468 377.332 143.696 377.2C143.936 377.056 144.056 376.864 144.056 376.624V376.228C144.056 376.06 143.984 375.916 143.84 375.796C143.708 375.676 143.522 375.592 143.282 375.544L140.168 375.004C139.472 374.884 138.92 374.632 138.512 374.248C138.104 373.852 137.9 373.396 137.9 372.88V372.286C137.9 371.542 138.194 370.954 138.782 370.522C139.382 370.09 140.204 369.874 141.248 369.874H142.688C143.636 369.874 144.404 370.132 144.992 370.648C145.58 371.164 145.874 371.842 145.874 372.682H143.84C143.84 372.358 143.732 372.1 143.516 371.908C143.312 371.716 143.036 371.62 142.688 371.62H141.266C140.846 371.62 140.522 371.686 140.294 371.818C140.066 371.95 139.952 372.136 139.952 372.376V372.736C139.952 372.904 140.018 373.048 140.15 373.168C140.294 373.288 140.48 373.366 140.708 373.402L143.93 373.978C144.59 374.11 145.118 374.362 145.514 374.734C145.91 375.106 146.108 375.544 146.108 376.048V376.714C146.108 377.458 145.802 378.052 145.19 378.496C144.578 378.928 143.762 379.144 142.742 379.144H141.14ZM151.203 379.144C150.471 379.144 149.823 379.006 149.259 378.73C148.707 378.454 148.275 378.064 147.963 377.56C147.663 377.056 147.513 376.474 147.513 375.814V373.402C147.513 372.706 147.663 372.094 147.963 371.566C148.275 371.026 148.707 370.612 149.259 370.324C149.823 370.024 150.471 369.874 151.203 369.874H152.643C153.735 369.874 154.611 370.192 155.271 370.828C155.931 371.464 156.261 372.31 156.261 373.366V375.166H149.583V375.814C149.583 376.294 149.727 376.678 150.015 376.966C150.315 377.254 150.711 377.398 151.203 377.398H152.589C153.069 377.398 153.453 377.284 153.741 377.056C154.041 376.816 154.191 376.504 154.191 376.12H156.225C156.225 377.032 155.889 377.764 155.217 378.316C154.545 378.868 153.663 379.144 152.571 379.144H151.203ZM154.227 373.618V373.366C154.227 372.838 154.083 372.412 153.795 372.088C153.507 371.764 153.129 371.602 152.661 371.602H151.203C150.711 371.602 150.309 371.776 149.997 372.124C149.697 372.46 149.547 372.904 149.547 373.456V373.618H154.227ZM161.019 379C160.011 379 159.273 378.79 158.805 378.37C158.349 377.938 158.121 377.26 158.121 376.336V366.4H160.191V376.246C160.191 376.594 160.263 376.846 160.407 377.002C160.551 377.146 160.791 377.218 161.127 377.218H161.991V379H161.019ZM166.619 379.144C165.887 379.144 165.239 379.006 164.675 378.73C164.123 378.454 163.691 378.064 163.379 377.56C163.079 377.056 162.929 376.474 162.929 375.814V373.402C162.929 372.706 163.079 372.094 163.379 371.566C163.691 371.026 164.123 370.612 164.675 370.324C165.239 370.024 165.887 369.874 166.619 369.874H168.059C169.151 369.874 170.027 370.192 170.687 370.828C171.347 371.464 171.677 372.31 171.677 373.366V375.166H164.999V375.814C164.999 376.294 165.143 376.678 165.431 376.966C165.731 377.254 166.127 377.398 166.619 377.398H168.005C168.485 377.398 168.869 377.284 169.157 377.056C169.457 376.816 169.607 376.504 169.607 376.12H171.641C171.641 377.032 171.305 377.764 170.633 378.316C169.961 378.868 169.079 379.144 167.987 379.144H166.619ZM169.643 373.618V373.366C169.643 372.838 169.499 372.412 169.211 372.088C168.923 371.764 168.545 371.602 168.077 371.602H166.619C166.127 371.602 165.725 371.776 165.413 372.124C165.113 372.46 164.963 372.904 164.963 373.456V373.618H169.643ZM176.831 379.144C175.727 379.144 174.839 378.826 174.167 378.19C173.507 377.554 173.177 376.714 173.177 375.67V373.402C173.177 372.706 173.327 372.094 173.627 371.566C173.927 371.026 174.353 370.612 174.905 370.324C175.457 370.024 176.093 369.874 176.813 369.874H178.253C179.285 369.874 180.113 370.174 180.737 370.774C181.373 371.362 181.691 372.142 181.691 373.114H179.657C179.657 372.682 179.525 372.334 179.261 372.07C179.009 371.794 178.673 371.656 178.253 371.656H176.831C176.363 371.656 175.979 371.83 175.679 372.178C175.391 372.526 175.247 372.976 175.247 373.528V375.544C175.247 376.084 175.391 376.522 175.679 376.858C175.979 377.194 176.369 377.362 176.849 377.362H178.271C178.715 377.362 179.069 377.2 179.333 376.876C179.609 376.552 179.747 376.132 179.747 375.616H181.781C181.781 376.672 181.457 377.524 180.809 378.172C180.173 378.82 179.327 379.144 178.271 379.144H176.831ZM184.818 369.01C184.41 369.01 184.08 368.89 183.828 368.65C183.588 368.398 183.468 368.08 183.468 367.696C183.468 367.312 183.588 367 183.828 366.76C184.08 366.508 184.41 366.382 184.818 366.382C185.226 366.382 185.556 366.508 185.808 366.76C186.06 367 186.186 367.312 186.186 367.696C186.186 368.08 186.06 368.398 185.808 368.65C185.556 368.89 185.226 369.01 184.818 369.01ZM183.792 370.018H185.862V379H183.792V370.018ZM191.808 379.144C190.704 379.144 189.816 378.826 189.144 378.19C188.472 377.542 188.136 376.69 188.136 375.634V373.402C188.136 372.706 188.286 372.094 188.586 371.566C188.898 371.026 189.33 370.612 189.882 370.324C190.446 370.024 191.094 369.874 191.826 369.874H193.41C194.142 369.874 194.784 370.024 195.336 370.324C195.9 370.612 196.332 371.026 196.632 371.566C196.944 372.094 197.1 372.706 197.1 373.402V375.634C197.1 376.69 196.758 377.542 196.074 378.19C195.402 378.826 194.502 379.144 193.374 379.144H191.808ZM193.356 377.362C193.86 377.362 194.262 377.194 194.562 376.858C194.874 376.51 195.03 376.06 195.03 375.508V373.51C195.03 372.958 194.88 372.514 194.58 372.178C194.28 371.83 193.878 371.656 193.374 371.656H191.862C191.358 371.656 190.956 371.83 190.656 372.178C190.356 372.514 190.206 372.958 190.206 373.51V375.508C190.206 376.06 190.356 376.51 190.656 376.858C190.956 377.194 191.346 377.362 191.826 377.362H193.356ZM199.043 370.018H200.969V371.188C201.233 370.792 201.581 370.474 202.013 370.234C202.445 369.994 202.877 369.874 203.309 369.874H204.425C205.349 369.874 206.087 370.168 206.639 370.756C207.203 371.344 207.485 372.118 207.485 373.078V379H205.415V373.132C205.415 372.7 205.301 372.352 205.073 372.088C204.857 371.812 204.569 371.674 204.209 371.674H203.093C202.625 371.674 202.205 371.854 201.833 372.214C201.461 372.562 201.221 373.012 201.113 373.564V379H199.043V370.018ZM212.431 379.144C211.519 379.144 210.781 378.916 210.217 378.46C209.665 377.992 209.389 377.374 209.389 376.606V375.958C209.389 375.202 209.677 374.596 210.253 374.14C210.841 373.684 211.609 373.456 212.557 373.456H213.673C214.009 373.456 214.369 373.504 214.753 373.6C215.137 373.696 215.479 373.822 215.779 373.978V372.862C215.779 372.49 215.659 372.19 215.419 371.962C215.179 371.734 214.867 371.62 214.483 371.62H212.971C212.575 371.62 212.257 371.716 212.017 371.908C211.777 372.088 211.657 372.328 211.657 372.628H209.641C209.641 371.8 209.947 371.134 210.559 370.63C211.171 370.126 211.975 369.874 212.971 369.874H214.483C215.491 369.874 216.301 370.15 216.913 370.702C217.525 371.242 217.831 371.962 217.831 372.862V379H215.905V377.866C215.617 378.25 215.257 378.562 214.825 378.802C214.393 379.03 213.967 379.144 213.547 379.144H212.431ZM213.673 377.524C214.153 377.524 214.585 377.392 214.969 377.128C215.353 376.852 215.623 376.492 215.779 376.048V375.616C215.575 375.448 215.287 375.316 214.915 375.22C214.543 375.112 214.153 375.058 213.745 375.058H212.611C212.251 375.058 211.957 375.148 211.729 375.328C211.513 375.508 211.405 375.742 211.405 376.03V376.534C211.405 376.834 211.519 377.074 211.747 377.254C211.975 377.434 212.275 377.524 212.647 377.524H213.673ZM223.091 379.144C222.071 379.144 221.243 378.826 220.607 378.19C219.983 377.542 219.671 376.696 219.671 375.652V373.564C219.671 372.832 219.821 372.19 220.121 371.638C220.421 371.074 220.841 370.642 221.381 370.342C221.933 370.03 222.563 369.874 223.271 369.874H224.369C224.741 369.874 225.107 369.958 225.467 370.126C225.839 370.294 226.145 370.516 226.385 370.792V366.4H228.437V379H226.511V377.758C226.259 378.178 225.923 378.514 225.503 378.766C225.083 379.018 224.657 379.144 224.225 379.144H223.091ZM224.387 377.362C224.903 377.362 225.347 377.158 225.719 376.75C226.103 376.33 226.325 375.814 226.385 375.202V373.402C226.301 372.886 226.097 372.466 225.773 372.142C225.461 371.818 225.083 371.656 224.639 371.656H223.487C222.959 371.656 222.533 371.842 222.209 372.214C221.897 372.586 221.741 373.072 221.741 373.672V375.526C221.741 376.078 221.885 376.522 222.173 376.858C222.473 377.194 222.851 377.362 223.307 377.362H224.387ZM233.49 379.144C232.578 379.144 231.84 378.916 231.276 378.46C230.724 377.992 230.448 377.374 230.448 376.606V375.958C230.448 375.202 230.736 374.596 231.312 374.14C231.9 373.684 232.668 373.456 233.616 373.456H234.732C235.068 373.456 235.428 373.504 235.812 373.6C236.196 373.696 236.538 373.822 236.838 373.978V372.862C236.838 372.49 236.718 372.19 236.478 371.962C236.238 371.734 235.926 371.62 235.542 371.62H234.03C233.634 371.62 233.316 371.716 233.076 371.908C232.836 372.088 232.716 372.328 232.716 372.628H230.7C230.7 371.8 231.006 371.134 231.618 370.63C232.23 370.126 233.034 369.874 234.03 369.874H235.542C236.55 369.874 237.36 370.15 237.972 370.702C238.584 371.242 238.89 371.962 238.89 372.862V379H236.964V377.866C236.676 378.25 236.316 378.562 235.884 378.802C235.452 379.03 235.026 379.144 234.606 379.144H233.49ZM234.732 377.524C235.212 377.524 235.644 377.392 236.028 377.128C236.412 376.852 236.682 376.492 236.838 376.048V375.616C236.634 375.448 236.346 375.316 235.974 375.22C235.602 375.112 235.212 375.058 234.804 375.058H233.67C233.31 375.058 233.016 375.148 232.788 375.328C232.572 375.508 232.464 375.742 232.464 376.03V376.534C232.464 376.834 232.578 377.074 232.806 377.254C233.034 377.434 233.334 377.524 233.706 377.524H234.732ZM242.044 379.18C241.648 379.18 241.33 379.06 241.09 378.82C240.85 378.58 240.73 378.262 240.73 377.866C240.73 377.482 240.85 377.17 241.09 376.93C241.33 376.69 241.648 376.57 242.044 376.57C242.428 376.57 242.74 376.69 242.98 376.93C243.22 377.17 243.34 377.482 243.34 377.866C243.34 378.262 243.22 378.58 242.98 378.82C242.74 379.06 242.428 379.18 242.044 379.18ZM246.245 379.18C245.849 379.18 245.531 379.06 245.291 378.82C245.051 378.58 244.931 378.262 244.931 377.866C244.931 377.482 245.051 377.17 245.291 376.93C245.531 376.69 245.849 376.57 246.245 376.57C246.629 376.57 246.941 376.69 247.181 376.93C247.421 377.17 247.541 377.482 247.541 377.866C247.541 378.262 247.421 378.58 247.181 378.82C246.941 379.06 246.629 379.18 246.245 379.18ZM250.446 379.18C250.05 379.18 249.732 379.06 249.492 378.82C249.252 378.58 249.132 378.262 249.132 377.866C249.132 377.482 249.252 377.17 249.492 376.93C249.732 376.69 250.05 376.57 250.446 376.57C250.83 376.57 251.142 376.69 251.382 376.93C251.622 377.17 251.742 377.482 251.742 377.866C251.742 378.262 251.622 378.58 251.382 378.82C251.142 379.06 250.83 379.18 250.446 379.18Z" fill="black"/>
<path d="M215.183 167.535C228.294 193.215 224.08 226.165 208.744 247.272C193.409 268.379 167.187 277.642 138.858 278.815C110.646 279.87 80.4439 272.835 71.7812 255.598C63.1186 238.36 76.1126 210.921 91.2136 184.069C106.315 157.334 123.523 131.302 147.521 127.432C171.401 123.563 202.072 141.972 215.183 167.535Z" fill="#0BB599"/>
<path d="M128.32 288.869C113.345 287.361 98.1553 283.641 85.8956 277.874C73.6192 272.099 64.3699 264.314 61.115 254.728C57.8609 245.145 60.5761 233.612 66.6736 221.118C72.7633 208.64 82.173 195.309 92.143 182.181C102.104 169.116 112.572 156.348 123.782 146.775C134.992 137.201 146.895 130.865 159.725 130.58L159.726 130.58C172.505 130.285 186.303 136.079 198.186 145.594C210.064 155.104 219.979 168.296 225.008 182.716M128.32 288.869C128.321 288.869 128.321 288.869 128.322 288.869L128.272 289.367L128.32 288.869C128.32 288.869 128.32 288.869 128.32 288.869ZM128.32 288.869C158.418 291.779 187.373 285.811 206.572 265.831C225.797 245.824 235.052 211.69 225.008 182.716M225.008 182.716C225.008 182.717 225.008 182.717 225.008 182.717L225.48 182.553L225.008 182.716Z" stroke="black"/>
<path d="M171.779 186.512L172.684 188.932L158.8 200.423H156.99L155.481 201.33L154.575 202.842V204.052L153.971 204.657L152.764 204.959L152.161 206.169V208.588L151.255 209.495L149.746 210.402L149.444 212.519L148.237 213.124L147.633 214.334L148.237 216.148L148.539 217.055L150.35 218.87L151.557 220.684L150.953 220.987L147.03 218.87L142.804 218.567L140.088 216.753L136.768 214.939H135.561L134.957 216.753L126.808 207.681L126.204 207.983L124.393 208.89L130.128 215.543L132.542 217.963L133.146 218.265L128.619 217.358L126.808 217.963L127.713 220.382L131.939 221.894L132.542 224.918V226.732L133.448 228.849V230.361L134.655 232.478L137.975 235.2L140.39 235.502H142.201L134.052 246.087L132.542 246.994L130.732 250.623L102.361 253.949L99.3427 254.252L98.4372 255.764V256.368L95.4191 256.066L93.0045 255.764L89.0809 255.159L86.0627 253.949L81.8373 252.437L77.0083 249.715L71.8774 245.482L64.9356 240.946L60.7102 237.922H58.8993L58.2956 238.829L55.8811 245.179L69.4628 259.09L83.95 276.932L95.4191 272.094H96.6263L97.2299 274.815L98.1354 277.839L99.0408 278.747L100.852 278.142L105.681 277.537L146.426 272.396L238.178 249.544V232.781V229.454L234.556 216.148L227.011 187.117L227.615 185.907L227.011 182.279L223.993 178.952L217.051 174.114L208.298 168.368L202.564 161.715L198.338 154.457L195.32 149.014L192.906 146.292L189.284 144.478L185.662 143.57H182.04C180.934 144.074 177.513 145.99 172.684 149.619C167.855 153.247 167.654 155.768 168.157 156.574V158.691L168.459 161.11L169.062 163.832L170.269 167.461L169.062 170.485V172.299L170.571 173.206L172.08 173.811L173.891 176.533V178.952L173.288 181.674L172.08 184.093L171.779 186.512Z" fill="white"/>
<path d="M238.147 248.07C238.147 248.07 224.775 249.492 208.664 234.941C208.664 234.941 206.315 244.78 204.744 247.285C203.582 249.657 201.817 251.68 199.626 253.15C190.058 259.349 176.16 251.418 171.785 249.118C169.763 248.058 169.459 247.994 161.976 243.961C159.885 242.831 148.762 236.434 148.762 236.434C146.005 235.216 141.285 235.421 141.285 235.421L137.82 241.145C136.482 243.357 134.678 245.248 132.534 246.688C134.853 246.495 137.154 246.349 139.462 246.203C141.764 246.039 144.065 245.898 146.355 245.688C147.506 245.6 148.651 245.483 149.79 245.348C150.929 245.231 152.063 245.061 153.196 244.88C154.323 244.701 155.439 244.457 156.537 244.148C157.65 243.876 158.691 243.369 159.593 242.661C158.828 243.569 157.845 244.266 156.736 244.687C155.649 245.144 154.525 245.508 153.377 245.775C151.102 246.311 148.79 246.671 146.46 246.852C144.135 247.045 141.81 247.139 139.485 247.11C137.162 247.104 134.841 246.963 132.534 246.688H132.528C130.458 248.082 128.116 249.02 125.658 249.439L99.4398 253.952C99.4398 253.952 105.644 261.942 99.2354 278.659C99.2354 278.659 112.233 277.342 120.365 279.794C128.491 282.241 140.963 282.241 154.166 277.465C167.368 272.688 174.332 273.912 183.135 275.627C191.939 277.342 223.963 292.9 235.209 264.236C235.209 264.236 239 254.93 238.147 248.07ZM104.178 261.702C103.951 261.694 103.735 261.598 103.578 261.434C103.42 261.27 103.332 261.052 103.332 260.824C103.332 260.596 103.42 260.378 103.578 260.214C103.735 260.05 103.951 259.954 104.178 259.946C104.405 259.954 104.62 260.05 104.777 260.214C104.935 260.378 105.023 260.596 105.023 260.824C105.023 261.052 104.935 261.27 104.777 261.434C104.62 261.598 104.405 261.694 104.178 261.702ZM103.617 255.17C103.844 255.177 104.06 255.273 104.218 255.437C104.376 255.601 104.465 255.82 104.465 256.048C104.465 256.276 104.376 256.495 104.218 256.659C104.06 256.822 103.844 256.918 103.617 256.926C103.389 256.918 103.174 256.822 103.016 256.659C102.857 256.495 102.769 256.276 102.769 256.048C102.769 255.82 102.857 255.601 103.016 255.437C103.174 255.273 103.389 255.177 103.617 255.17H103.617ZM101.934 277.716C101.707 277.708 101.492 277.612 101.335 277.448C101.177 277.285 101.089 277.066 101.089 276.838C101.089 276.611 101.177 276.392 101.335 276.228C101.492 276.065 101.707 275.969 101.934 275.96C102.161 275.969 102.376 276.065 102.534 276.228C102.692 276.392 102.78 276.611 102.78 276.838C102.78 277.066 102.692 277.285 102.534 277.448C102.376 277.612 102.161 277.708 101.934 277.716H101.934ZM103.336 272.94C103.109 272.932 102.894 272.836 102.737 272.672C102.579 272.508 102.491 272.29 102.491 272.062C102.491 271.835 102.579 271.616 102.737 271.452C102.894 271.288 103.109 271.192 103.336 271.184C103.563 271.192 103.778 271.288 103.936 271.452C104.094 271.616 104.182 271.835 104.182 272.062C104.182 272.29 104.094 272.509 103.936 272.672C103.778 272.836 103.563 272.932 103.336 272.94V272.94ZM104.318 267.04C104.091 267.032 103.876 266.936 103.718 266.772C103.56 266.608 103.472 266.39 103.472 266.162C103.472 265.935 103.56 265.716 103.718 265.552C103.876 265.388 104.091 265.292 104.318 265.284C104.545 265.292 104.76 265.388 104.918 265.552C105.075 265.716 105.163 265.935 105.163 266.162C105.163 266.39 105.075 266.608 104.917 266.772C104.76 266.936 104.545 267.032 104.318 267.04H104.318ZM188.352 220.103C188.74 220.671 189.211 221.178 189.748 221.607C189.549 221.555 187.943 221.098 188.013 220.519V220.484C188.075 220.319 188.195 220.183 188.352 220.103V220.103ZM237.703 221.76C237.296 215.223 236.055 208.765 234.011 202.543C230.343 191.475 226.82 187.231 226.82 187.231C226.82 187.231 225.383 189.11 223.508 187.776C221.633 186.441 216.381 184.638 216.381 184.638C207.238 182.203 203.914 186.096 203.914 186.096C202.263 188.356 200.482 190.517 198.581 192.57C199.365 192.011 200.209 191.544 201.099 191.176C202.315 190.656 203.611 190.343 204.931 190.252C205.605 190.213 206.281 190.25 206.946 190.363C207.618 190.486 208.268 190.703 208.88 191.007C210.074 191.616 211.037 192.601 211.62 193.81C210.762 192.944 209.723 192.279 208.577 191.865C207.431 191.451 206.207 191.298 204.995 191.416C203.775 191.498 202.567 191.706 201.391 192.037C200.298 192.335 199.2 192.692 198.096 193.09L198.09 193.096C191.647 199.868 186.921 201.823 186.921 201.823C184.864 210.381 185.98 215.543 187.376 218.441C187.376 218.224 187.394 218.008 187.405 217.791C187.501 216.809 187.665 215.835 187.896 214.876C188.359 212.973 188.932 211.099 189.614 209.263C190.297 207.437 191.033 205.628 191.851 203.86C192.654 202.082 193.553 200.349 194.544 198.669C193.405 202.409 192.026 206.032 190.712 209.667C190.04 211.481 189.386 213.296 188.778 215.122C188.48 216.035 188.188 216.954 187.972 217.885C187.865 218.3 187.788 218.722 187.744 219.149C187.929 219.478 188.132 219.797 188.352 220.103C188.992 219.778 189.681 219.556 190.391 219.447C195.362 218.429 224.226 224.282 210.667 227.396L209.92 230.311C228.754 236.808 239 228.35 239 228.35C238.258 227.373 237.884 224.516 237.703 221.76ZM190.578 217.452C190.351 217.444 190.136 217.347 189.978 217.184C189.82 217.02 189.732 216.801 189.732 216.574C189.732 216.346 189.82 216.127 189.978 215.964C190.136 215.8 190.351 215.704 190.578 215.696C190.805 215.704 191.02 215.8 191.177 215.964C191.335 216.127 191.423 216.346 191.423 216.574C191.423 216.801 191.335 217.02 191.177 217.184C191.02 217.347 190.805 217.444 190.578 217.452V217.452ZM195.309 217.768C195.082 217.76 194.867 217.664 194.71 217.5C194.552 217.336 194.464 217.117 194.464 216.89C194.464 216.662 194.552 216.443 194.71 216.28C194.867 216.116 195.082 216.02 195.309 216.012C195.536 216.02 195.751 216.116 195.909 216.28C196.067 216.443 196.155 216.662 196.155 216.89C196.155 217.117 196.067 217.336 195.909 217.5C195.751 217.663 195.536 217.76 195.309 217.768V217.768ZM200.252 218.611C200.025 218.602 199.81 218.506 199.652 218.343C199.494 218.179 199.406 217.96 199.406 217.733C199.406 217.505 199.494 217.286 199.652 217.122C199.81 216.959 200.025 216.863 200.252 216.855C200.479 216.863 200.694 216.959 200.851 217.123C201.009 217.286 201.097 217.505 201.097 217.733C201.097 217.96 201.009 218.179 200.851 218.343C200.694 218.506 200.479 218.602 200.252 218.611V218.611ZM205.404 219.559C205.177 219.551 204.962 219.455 204.804 219.291C204.646 219.127 204.558 218.908 204.558 218.681C204.558 218.453 204.646 218.234 204.804 218.071C204.962 217.907 205.177 217.811 205.404 217.803C205.631 217.811 205.846 217.907 206.004 218.071C206.161 218.234 206.25 218.453 206.25 218.681C206.25 218.908 206.161 219.127 206.004 219.291C205.846 219.455 205.631 219.551 205.404 219.559V219.559ZM216.603 210.012C216.527 211.241 216.468 212.476 216.346 213.7L216.124 215.538C216.054 216.146 215.972 216.755 215.855 217.364C215.639 218.57 215.44 219.787 215.166 220.981C214.879 222.181 214.593 223.375 214.254 224.552C214.336 223.322 214.47 222.105 214.599 220.893C214.739 219.676 214.815 218.458 214.949 217.247C215.171 214.818 215.347 212.394 215.434 209.971C215.525 207.555 215.472 205.135 215.277 202.725C215.201 202.128 215.166 201.519 215.055 200.928L214.914 200.032C214.856 199.74 214.786 199.447 214.722 199.154C214.497 197.962 214.068 196.817 213.454 195.771C213.889 196.214 214.25 196.724 214.523 197.281C214.675 197.554 214.809 197.835 214.926 198.124C215.056 198.407 215.172 198.696 215.271 198.991C215.68 200.165 215.983 201.373 216.176 202.602C216.546 205.054 216.688 207.534 216.603 210.012V210.012ZM186.921 201.824C186.795 202.116 186.685 202.415 186.593 202.719C186.617 202.467 186.634 202.216 186.646 201.958C186.821 201.876 186.921 201.824 186.921 201.824Z" fill="#020202"/>
<path d="M189.841 221.262L187.698 231.441L186.611 237.417L185.332 237.107C174.443 234.806 156.485 226.957 156.485 226.957L152.355 221.613C154.931 222.222 155.72 219.33 155.72 219.33C158.716 220.086 158.827 217.007 158.827 217.007C161.462 217.276 161.001 213.512 161.001 213.512C163.81 213.823 162.905 210.527 162.905 210.527C160.197 207.857 158.64 204.231 158.565 200.425C158.401 200.41 158.237 200.41 158.074 200.425C158.074 200.425 166.381 186.166 173.94 188.911L181.505 191.656C180.628 193.433 180.155 195.382 180.121 197.363C180.81 203.773 184.981 202.649 186.43 202.052C186.013 203.213 185.685 204.405 185.448 205.616C185.155 207.06 184.97 208.523 184.893 209.995C184.876 210.732 184.876 211.47 184.911 212.213C184.96 212.959 185.061 213.7 185.215 214.431C185.364 215.175 185.611 215.896 185.951 216.574C186.214 217.101 186.577 217.572 187.02 217.961C187.074 218.011 187.13 218.058 187.189 218.101L187.195 218.107C187.744 218.616 189.841 221.262 189.841 221.262ZM168.155 156.916C168.244 158.053 168.392 159.185 168.599 160.307C168.798 161.414 169.085 162.503 169.456 163.565C169.637 164.086 169.854 164.594 170.104 165.085C170.408 165.649 170.586 166.272 170.628 166.911C170.723 168.142 170.537 169.379 170.083 170.528L170.07 170.556L170.053 170.586C169.893 170.876 169.78 171.19 169.719 171.516C169.688 171.634 169.68 171.758 169.697 171.88C169.714 172.001 169.755 172.118 169.818 172.223C169.993 172.409 170.225 172.531 170.477 172.572C170.647 172.587 170.809 172.618 170.985 172.627L171.527 172.624L171.561 172.624C171.666 172.624 171.769 172.653 171.859 172.707C171.949 172.762 172.021 172.841 172.069 172.934C172.291 173.368 172.554 173.814 172.82 174.234C173.076 174.652 173.368 175.048 173.692 175.415C173.845 175.588 174.014 175.745 174.197 175.884C174.422 176.054 174.635 176.239 174.835 176.438C175.242 176.842 175.588 177.303 175.862 177.808L175.834 177.761C176.171 178.244 176.564 178.685 177.004 179.075C177.445 179.47 177.947 179.793 178.49 180.03C179.038 180.264 179.635 180.363 180.229 180.317C180.845 180.262 181.444 180.089 181.994 179.807C181.485 180.199 180.898 180.476 180.272 180.619C179.623 180.76 178.949 180.733 178.313 180.541C177.678 180.345 177.082 180.042 176.55 179.644C176.009 179.252 175.527 178.786 175.115 178.26L175.087 178.213C174.829 177.818 174.517 177.461 174.161 177.152C173.983 176.991 173.795 176.842 173.598 176.705C173.36 176.537 173.137 176.348 172.934 176.139C172.55 175.74 172.202 175.308 171.894 174.848C171.59 174.398 171.31 173.932 171.056 173.451L171.599 173.761L170.941 173.773C170.718 173.766 170.484 173.73 170.256 173.706C169.714 173.619 169.221 173.335 168.873 172.91C168.72 172.677 168.616 172.416 168.566 172.142C168.517 171.869 168.524 171.587 168.585 171.316C168.675 170.854 168.842 170.41 169.079 170.003L169.049 170.06C169.442 169.075 169.629 168.019 169.601 166.959C169.583 166.451 169.465 165.953 169.254 165.491C169.021 164.946 168.825 164.386 168.668 163.814C168.367 162.688 168.179 161.534 168.105 160.37C168.021 159.219 168.038 158.063 168.155 156.916V156.916Z" fill="#020202"/>
<path d="M168.358 157.145C170.002 157.991 171.701 158.83 173.399 159.604C175.068 160.413 176.815 161.05 178.614 161.506C178.824 161.547 179.038 161.568 179.253 161.569C179.447 161.563 179.627 161.507 179.642 161.455C179.646 161.423 179.65 161.464 179.676 161.384L179.744 161.198C179.788 161.073 179.845 160.952 179.913 160.837C180.047 160.601 180.219 160.389 180.422 160.209C180.833 159.869 181.33 159.648 181.858 159.571C182.115 159.529 182.377 159.514 182.638 159.528C182.924 159.567 183.2 159.663 183.448 159.812C183.884 160.102 184.253 160.483 184.53 160.928C184.808 161.373 184.988 161.872 185.058 162.392C185.219 163.363 185.237 164.352 185.112 165.328L185.115 165.252C185.148 165.892 185.124 166.534 185.044 167.17C185.006 167.515 184.922 167.853 184.795 168.175C184.759 168.271 184.712 168.362 184.655 168.445C184.625 168.492 184.599 168.536 184.563 168.582C184.519 168.629 184.471 168.676 184.423 168.72C184.313 168.818 184.181 168.888 184.039 168.925C183.894 168.952 183.745 168.954 183.6 168.928L184.109 168.694C182.771 171.54 182.233 174.697 182.555 177.826C182.645 178.577 182.814 179.416 182.901 180.22C182.999 181.032 183.069 181.851 183.092 182.672C183.114 183.495 183.095 184.319 183.035 185.14C182.974 185.968 182.859 186.77 182.751 187.572C182.549 189.197 182.233 190.805 181.804 192.385C181.685 192.801 181.527 193.206 181.333 193.592L181.017 194.119C180.928 194.277 180.849 194.44 180.781 194.608C180.51 195.296 180.404 196.038 180.469 196.775C180.662 198.257 181.123 199.871 182.141 200.939C182.644 201.476 183.316 201.824 184.044 201.926C184.799 202.017 185.564 201.945 186.289 201.715C187.791 201.219 189.204 200.487 190.477 199.547C191.777 198.613 193.014 197.597 194.183 196.503C196.539 194.319 198.755 191.988 200.816 189.524C201.867 188.296 202.858 187.064 203.894 185.798C204.467 185.189 205.153 184.698 205.913 184.353C206.287 184.178 206.669 184.023 207.06 183.889C207.458 183.791 207.852 183.656 208.257 183.589C208.663 183.534 209.068 183.449 209.476 183.419L210.705 183.365C211.522 183.38 212.337 183.451 213.145 183.576C213.547 183.644 213.954 183.692 214.352 183.778L215.538 184.072C216.327 184.271 217.105 184.51 217.869 184.789C218.652 185.022 219.381 185.382 220.136 185.682C220.895 185.976 221.616 186.348 222.341 186.71L223.431 187.252L223.704 187.388C223.786 187.425 223.857 187.464 223.937 187.496C224.093 187.561 224.256 187.608 224.423 187.637C224.751 187.699 225.089 187.685 225.411 187.596C225.733 187.507 226.03 187.345 226.28 187.123C226.523 186.882 226.719 186.596 226.857 186.281C226.936 186.125 226.998 185.96 227.04 185.79L227.11 185.538L227.139 185.278C227.191 184.56 227.057 183.841 226.749 183.192C226.019 181.834 225.037 180.628 223.855 179.639C221.421 177.594 218.769 175.825 215.948 174.363C213.081 172.797 210.405 170.903 207.975 168.718C206.761 167.624 205.616 166.458 204.544 165.225C203.465 163.998 202.462 162.707 201.541 161.357C200.614 160.011 199.769 158.612 199.008 157.165C198.637 156.438 198.262 155.712 197.936 154.962C197.767 154.591 197.595 154.218 197.439 153.847L196.927 152.786L196.421 151.72L195.809 150.719C195.597 150.391 195.417 150.039 195.18 149.73L194.46 148.808L194.101 148.347L193.691 147.933L192.871 147.105L191.961 146.381C191.663 146.134 191.342 145.915 191.004 145.726C188.351 144.062 185.177 143.443 182.095 143.986L182.186 143.951C180.688 144.743 179.208 145.602 177.758 146.495C176.309 147.392 174.888 148.335 173.522 149.35C172.138 150.338 170.854 151.457 169.685 152.693C169.109 153.309 168.632 154.011 168.272 154.774C168.087 155.145 167.998 155.556 168.013 155.971C168.028 156.385 168.146 156.789 168.358 157.145ZM168.28 157.232C168.032 156.862 167.882 156.434 167.845 155.99C167.808 155.545 167.885 155.099 168.069 154.693C168.408 153.889 168.872 153.143 169.442 152.482C170.577 151.179 171.836 149.99 173.201 148.931C174.554 147.865 175.963 146.875 177.399 145.929C178.839 144.987 180.297 144.086 181.803 143.235L181.807 143.233C181.834 143.217 181.864 143.206 181.894 143.199C183.533 142.852 185.223 142.826 186.871 143.122C188.518 143.405 190.097 143.998 191.523 144.871C191.89 145.07 192.239 145.3 192.566 145.559L193.557 146.322L194.452 147.193L194.897 147.631L195.289 148.114L196.072 149.083C196.329 149.409 196.526 149.774 196.756 150.118L197.42 151.167L197.971 152.274L198.515 153.385C198.673 153.755 198.84 154.113 199.006 154.474C199.325 155.201 199.692 155.905 200.055 156.61C200.799 158.012 201.625 159.369 202.53 160.673C203.429 161.98 204.407 163.231 205.46 164.418C206.505 165.611 207.621 166.74 208.803 167.798C211.156 169.93 213.741 171.79 216.509 173.344C219.39 174.873 222.095 176.717 224.572 178.842C225.854 179.936 226.906 181.275 227.667 182.781C228.036 183.599 228.184 184.5 228.097 185.393L228.05 185.732C228.023 185.843 227.988 185.952 227.956 186.061C227.896 186.281 227.813 186.493 227.707 186.695C227.512 187.115 227.238 187.494 226.9 187.811C226.543 188.122 226.119 188.347 225.662 188.468C225.204 188.589 224.725 188.603 224.261 188.509C224.033 188.466 223.809 188.397 223.595 188.304C223.489 188.259 223.384 188.201 223.285 188.151L223.021 188.011L221.964 187.453C221.259 187.078 220.559 186.694 219.824 186.389C219.092 186.077 218.382 185.703 217.626 185.458C216.887 185.167 216.133 184.914 215.368 184.7L214.219 184.387C213.834 184.295 213.441 184.241 213.053 184.166C212.274 184.028 211.487 183.942 210.698 183.91L209.516 183.936C209.123 183.956 208.736 184.029 208.345 184.073C206.787 184.279 205.336 184.982 204.207 186.077C203.195 187.293 202.157 188.562 201.104 189.772C199.01 192.227 196.794 194.575 194.465 196.808C193.294 197.927 192.053 198.969 190.749 199.928C189.454 200.938 188.007 201.735 186.462 202.289C185.657 202.566 184.801 202.667 183.953 202.584C183.072 202.482 182.251 202.084 181.625 201.454C181.025 200.838 180.56 200.103 180.26 199.297C179.949 198.513 179.733 197.693 179.619 196.857C179.519 195.985 179.624 195.1 179.926 194.275C180.003 194.068 180.094 193.866 180.199 193.67L180.491 193.154C180.647 192.815 180.776 192.465 180.877 192.106C181.278 190.572 181.57 189.012 181.752 187.436C182.204 184.283 182.138 181.078 181.555 177.947C181.376 176.293 181.448 174.621 181.769 172.989C182.077 171.359 182.592 169.776 183.303 168.278L183.812 168.044C183.839 168.024 183.809 168.065 183.839 168.03C183.847 168.022 183.856 168.015 183.866 168.01L183.899 167.955C183.931 167.913 183.955 167.867 183.971 167.818C184.069 167.57 184.134 167.31 184.165 167.045C184.24 166.464 184.27 165.878 184.252 165.293L184.252 165.275C184.252 165.256 184.253 165.236 184.256 165.217C184.392 164.33 184.4 163.427 184.279 162.538C184.239 162.122 184.111 161.72 183.905 161.358C183.698 160.995 183.418 160.68 183.081 160.434C182.928 160.338 182.759 160.27 182.582 160.231C182.375 160.216 182.166 160.222 181.96 160.251C181.553 160.298 181.167 160.456 180.842 160.707C180.691 160.835 180.561 160.988 180.459 161.158C180.404 161.244 180.359 161.335 180.323 161.431L180.266 161.574C180.231 161.658 180.189 161.739 180.141 161.817C180.031 161.939 179.894 162.034 179.742 162.095C179.589 162.156 179.424 162.18 179.261 162.167C179.006 162.161 178.753 162.131 178.504 162.076C177.575 161.851 176.669 161.538 175.798 161.14C174.931 160.766 174.08 160.361 173.239 159.94C171.552 159.093 169.919 158.203 168.28 157.232V157.232Z" fill="#020202"/>
<path d="M173.845 176.255C174.199 177.334 174.357 178.469 174.312 179.604C174.305 180.793 174.003 181.961 173.433 183.004C173.118 183.415 172.839 183.852 172.598 184.312C172.411 184.763 172.3 185.242 172.269 185.73C172.224 186.802 172.343 187.875 172.622 188.911C171.898 188.001 171.458 186.897 171.357 185.738C171.301 185.122 171.372 184.502 171.566 183.915C171.788 183.375 172.08 182.866 172.432 182.401C172.916 181.497 173.246 180.519 173.409 179.506C173.606 178.457 173.726 177.374 173.845 176.255ZM148.496 216.998C148.278 216.657 148.094 216.297 147.944 215.922C147.788 215.543 147.679 215.146 147.619 214.741C147.535 214.289 147.616 213.823 147.848 213.427C148.132 213.032 148.559 212.765 149.037 212.684L148.953 212.707C149.138 212.617 149.292 212.475 149.396 212.297C149.428 212.233 149.44 212.162 149.431 212.092C149.425 212.054 149.415 212.016 149.4 211.981L149.326 211.798C149.191 211.459 149.142 211.092 149.182 210.73C149.223 210.368 149.352 210.021 149.558 209.721C149.771 209.422 150.052 209.18 150.377 209.012C150.658 208.879 150.952 208.772 151.253 208.694C151.408 208.656 151.544 208.564 151.636 208.434C151.653 208.392 151.658 208.347 151.649 208.304C151.639 208.239 151.617 208.177 151.585 208.12C151.553 208.074 151.53 208.023 151.518 207.969L151.515 207.956C151.39 207.39 151.397 206.803 151.534 206.24C151.614 205.936 151.752 205.651 151.941 205.399C152.142 205.146 152.399 204.942 152.692 204.805C152.942 204.693 153.206 204.611 153.476 204.562C153.67 204.521 153.856 204.45 154.028 204.35C154.168 204.276 154.28 204.159 154.349 204.016C154.404 203.877 154.413 203.723 154.374 203.579L154.347 203.481C154.34 203.453 154.338 203.424 154.342 203.395C154.42 202.891 154.577 202.403 154.807 201.948C155.031 201.489 155.354 201.085 155.752 200.765C156.149 200.443 156.629 200.241 157.137 200.181C157.382 200.148 157.63 200.138 157.877 200.15C158.121 200.165 158.36 200.215 158.601 200.247C158.643 200.253 158.681 200.274 158.708 200.306C158.735 200.339 158.748 200.381 158.746 200.423L158.745 200.441C158.702 201.368 158.788 202.297 159.001 203.201C159.201 204.109 159.51 204.989 159.92 205.823C160.317 206.655 160.806 207.44 161.377 208.163C161.941 208.883 162.564 209.555 163.241 210.169C163.3 210.226 163.345 210.296 163.371 210.374C163.515 210.798 163.606 211.238 163.64 211.684C163.688 212.182 163.601 212.683 163.389 213.135C163.316 213.258 163.236 213.377 163.149 213.49C163.044 213.592 162.935 213.693 162.821 213.784C162.697 213.853 162.569 213.919 162.44 213.979C162.315 214.023 162.186 214.057 162.055 214.082C161.812 214.125 161.564 214.142 161.317 214.131C161.089 214.106 160.866 214.072 160.64 214.04L161.339 213.366C161.418 213.823 161.454 214.286 161.445 214.75C161.443 215.241 161.357 215.729 161.19 216.191C160.994 216.746 160.586 217.2 160.057 217.454C159.541 217.657 158.976 217.698 158.437 217.574L159.19 216.971C159.167 217.429 159.071 217.88 158.905 218.308C158.734 218.775 158.44 219.186 158.054 219.499C157.643 219.818 157.133 219.982 156.614 219.96C156.381 219.953 156.149 219.925 155.921 219.875C155.708 219.815 155.502 219.744 155.295 219.677L156.021 219.229C155.941 219.716 155.788 220.189 155.567 220.632C155.341 221.117 154.976 221.524 154.519 221.801C154.278 221.934 154.012 222.017 153.737 222.044C153.463 222.071 153.186 222.043 152.923 221.96C152.687 221.887 152.457 221.795 152.236 221.685L151.64 221.311C151.57 221.267 151.518 221.2 151.493 221.122C151.356 220.733 151.18 220.359 150.968 220.006C150.755 219.637 150.508 219.287 150.256 218.937C149.997 218.59 149.72 218.256 149.427 217.937C149.136 217.621 148.817 217.306 148.496 216.998ZM148.585 216.922C148.951 217.166 149.303 217.43 149.639 217.714C149.982 218.001 150.309 218.307 150.619 218.628C150.932 218.955 151.22 219.304 151.482 219.671C151.76 220.049 151.996 220.455 152.189 220.882L152.042 220.693L152.58 220.965C152.756 221.031 152.937 221.084 153.12 221.124C153.275 221.165 153.437 221.175 153.596 221.152C153.755 221.128 153.907 221.073 154.044 220.989C154.319 220.789 154.53 220.513 154.652 220.195C154.8 219.846 154.897 219.477 154.94 219.101C154.948 219.025 154.973 218.951 155.012 218.885C155.051 218.819 155.103 218.762 155.166 218.718C155.229 218.674 155.3 218.644 155.376 218.63C155.451 218.615 155.528 218.618 155.603 218.636L155.666 218.652L156.151 218.775C156.301 218.797 156.453 218.807 156.605 218.803C156.864 218.81 157.116 218.724 157.316 218.56C157.523 218.375 157.678 218.138 157.762 217.873C157.866 217.575 157.926 217.264 157.938 216.949C157.941 216.866 157.96 216.785 157.993 216.709C158.027 216.633 158.076 216.565 158.136 216.508C158.196 216.451 158.267 216.407 158.344 216.377C158.422 216.348 158.504 216.334 158.587 216.336L158.644 216.34L158.692 216.346C158.975 216.415 159.272 216.404 159.549 216.313C159.664 216.253 159.766 216.172 159.849 216.073C159.933 215.974 159.996 215.859 160.034 215.735C160.156 215.405 160.225 215.058 160.239 214.706C160.258 214.327 160.241 213.948 160.19 213.572C160.178 213.479 160.187 213.384 160.218 213.295C160.248 213.206 160.299 213.126 160.367 213.06C160.434 212.994 160.515 212.945 160.605 212.917C160.695 212.889 160.79 212.882 160.882 212.897L160.889 212.898L161.398 212.984C161.55 212.994 161.702 212.989 161.852 212.97C161.97 212.966 162.085 212.932 162.186 212.871C162.287 212.81 162.37 212.723 162.428 212.62C162.643 211.994 162.647 211.314 162.437 210.686L162.567 210.89C161.876 210.202 161.258 209.445 160.723 208.629C160.191 207.819 159.746 206.955 159.395 206.051C159.044 205.155 158.782 204.227 158.613 203.28C158.43 202.334 158.353 201.372 158.384 200.409L158.528 200.603C158.091 200.512 157.642 200.504 157.203 200.579C156.777 200.646 156.381 200.842 156.067 201.138C155.759 201.438 155.52 201.801 155.368 202.204C155.211 202.604 155.116 203.027 155.085 203.456L155.053 203.273C155.195 203.59 155.217 203.948 155.115 204.28C155.009 204.6 154.803 204.878 154.527 205.071C154.088 205.329 153.621 205.536 153.135 205.687C152.983 205.772 152.851 205.889 152.748 206.029C152.646 206.17 152.575 206.332 152.54 206.503C152.455 206.902 152.453 207.314 152.533 207.714L152.463 207.55C152.58 207.743 152.653 207.958 152.678 208.181C152.707 208.426 152.664 208.674 152.554 208.895C152.341 209.263 151.992 209.533 151.582 209.647C151.323 209.708 151.069 209.789 150.823 209.891C150.626 209.977 150.453 210.11 150.318 210.278C150.19 210.453 150.105 210.656 150.071 210.87C150.038 211.085 150.056 211.304 150.125 211.51L150.196 211.736C150.226 211.838 150.243 211.943 150.247 212.049C150.252 212.27 150.195 212.487 150.083 212.677C149.88 212.996 149.58 213.24 149.228 213.374C149.203 213.384 149.178 213.392 149.151 213.396L149.144 213.397C148.839 213.415 148.553 213.549 148.344 213.772C148.154 214.047 148.061 214.378 148.081 214.711C148.087 215.088 148.139 215.463 148.235 215.827C148.331 216.198 148.448 216.564 148.585 216.922V216.922Z" fill="#020202"/>
<path d="M153.552 208.509C153.915 209.281 154.227 210.077 154.486 210.89C154.621 211.295 154.732 211.707 154.838 212.126C154.893 212.325 154.922 212.579 154.98 212.713C155.046 212.889 155.134 213.056 155.242 213.21C155.715 213.887 156.243 214.523 156.821 215.113L158.564 216.96C157.836 216.513 157.147 216.005 156.504 215.442C155.837 214.883 155.247 214.238 154.75 213.524C154.619 213.327 154.515 213.115 154.439 212.892C154.378 212.678 154.331 212.461 154.298 212.241C154.227 211.831 154.13 211.421 154.047 211.007C153.867 210.183 153.699 209.351 153.552 208.509ZM150.909 212.126C151.24 212.778 151.5 213.462 151.684 214.169C151.733 214.346 151.778 214.523 151.815 214.702C151.856 214.851 151.917 214.993 151.996 215.125C152.166 215.42 152.364 215.698 152.587 215.955C153.028 216.497 153.523 217.01 154.01 217.533C154.502 218.053 155 218.572 155.481 219.121C154.851 218.757 154.254 218.337 153.699 217.867C153.132 217.401 152.609 216.886 152.136 216.325C151.892 216.033 151.68 215.716 151.506 215.377C151.414 215.192 151.349 214.994 151.313 214.791L151.24 214.262L150.909 212.126ZM156.486 206.182C157.189 207.439 157.794 208.714 158.463 209.953C158.787 210.577 159.133 211.186 159.501 211.78C159.863 212.386 160.286 212.952 160.765 213.469C160.125 213.117 159.568 212.632 159.13 212.046C158.678 211.48 158.282 210.871 157.948 210.228C157.611 209.592 157.318 208.933 157.07 208.257C156.815 207.584 156.62 206.889 156.486 206.182V206.182Z" fill="#020202"/>
<path d="M211.675 223.464C211.249 225.601 210.757 227.723 210.246 229.84C209.734 231.958 209.206 234.071 208.632 236.173C208.061 238.275 207.471 240.372 206.863 242.464C206.541 243.513 206.275 244.547 205.905 245.606C205.552 246.667 205.08 247.685 204.499 248.641C203.347 250.586 201.734 252.217 199.803 253.389C197.874 254.536 195.739 255.293 193.52 255.619C191.324 255.955 189.094 255.992 186.889 255.727C186.339 255.666 185.791 255.589 185.245 255.493C184.688 255.378 184.137 255.235 183.595 255.065L182.044 254.48L180.532 253.836C172.584 250.209 165.03 245.9 157.42 241.689C155.522 240.627 153.644 239.531 151.768 238.426C151.302 238.145 150.83 237.877 150.37 237.578C149.925 237.279 149.464 237.003 148.991 236.751C148.02 236.305 146.989 236.005 145.93 235.863C143.78 235.625 141.614 235.567 139.454 235.689C139.18 235.69 138.904 235.688 138.623 235.669C138.322 235.662 138.023 235.607 137.739 235.506C137.646 235.47 137.561 235.417 137.487 235.35L137.332 235.205L137.036 234.926L136.445 234.367L134.082 232.132L134.062 232.112C133.883 231.91 133.721 231.693 133.579 231.463C133.435 231.226 133.32 230.972 133.237 230.706C133.154 230.432 133.115 230.147 133.12 229.861C133.122 229.556 133.19 229.254 133.319 228.978L133.371 229.388C133.112 229.099 132.905 228.766 132.759 228.405C132.617 228.068 132.505 227.719 132.423 227.363C132.258 226.665 132.159 225.953 132.126 225.236L132.193 225.45C131.861 224.93 131.657 224.338 131.6 223.723C131.568 223.429 131.558 223.133 131.57 222.837C131.58 222.538 131.613 222.24 131.67 221.946L132.087 222.483C131.189 222.447 130.306 222.233 129.49 221.853C129.089 221.671 128.701 221.462 128.329 221.227C127.951 220.991 127.592 220.727 127.253 220.438C127.237 220.424 127.222 220.409 127.209 220.392L127.203 220.384C126.861 219.991 126.606 219.53 126.456 219.03C126.373 218.728 126.373 218.409 126.456 218.106C126.55 217.794 126.735 217.516 126.989 217.31C127.228 217.123 127.508 216.996 127.805 216.938C128.103 216.88 128.41 216.893 128.702 216.976L130.008 217.296L135.227 218.589L134.572 219.289C134.342 218.567 134.244 217.81 134.282 217.054C134.312 216.665 134.384 216.28 134.498 215.908C134.615 215.479 134.846 215.089 135.165 214.781C135.538 214.452 136.027 214.285 136.523 214.316C136.934 214.348 137.337 214.452 137.711 214.624C138.374 214.933 139 215.315 139.578 215.762C140.144 216.184 140.681 216.636 141.203 217.066L141.587 217.371C141.697 217.45 141.813 217.52 141.933 217.58C142.205 217.71 142.489 217.811 142.781 217.882C144.063 218.164 145.376 218.283 146.687 218.237L146.714 218.237C146.751 218.237 146.787 218.241 146.824 218.248C148.213 218.586 149.517 219.209 150.652 220.079C151.753 220.902 152.779 221.819 153.72 222.821C154.655 223.809 155.533 224.85 156.35 225.938C156.689 226.404 157.138 226.779 157.657 227.029L159.464 227.855C161.894 228.949 164.34 230.001 166.801 231.014C169.217 232.063 171.722 232.895 174.286 233.498L174.318 233.505L174.344 233.511C178.411 234.681 182.474 235.868 186.532 237.07L186.086 237.341L188.045 228.671L190.046 220.01C190.049 219.995 190.058 219.982 190.071 219.974C190.084 219.966 190.1 219.963 190.115 219.966C190.13 219.969 190.143 219.978 190.151 219.991C190.16 220.004 190.163 220.019 190.16 220.034L188.493 228.766L186.785 237.489C186.767 237.58 186.713 237.661 186.636 237.714C186.558 237.766 186.463 237.785 186.371 237.767L186.35 237.762L186.339 237.759C182.247 236.677 178.16 235.577 174.079 234.459L174.136 234.472C172.794 234.224 171.472 233.874 170.182 233.425C168.905 232.997 167.645 232.532 166.392 232.051C163.888 231.086 161.424 230.033 158.98 228.938L157.141 228.105C156.45 227.774 155.85 227.278 155.394 226.661C154.601 225.613 153.75 224.612 152.844 223.66C151.951 222.716 150.977 221.851 149.934 221.075C148.941 220.316 147.802 219.769 146.589 219.469L146.725 219.48C145.295 219.522 143.865 219.378 142.472 219.051C142.099 218.956 141.737 218.822 141.392 218.651C141.208 218.556 141.031 218.446 140.864 218.323C140.715 218.208 140.582 218.096 140.447 217.984C139.914 217.538 139.405 217.102 138.876 216.699C138.372 216.302 137.828 215.96 137.251 215.681C137.003 215.562 136.737 215.487 136.464 215.459C136.367 215.449 136.27 215.458 136.177 215.486C136.085 215.514 135.998 215.561 135.924 215.623C135.59 216.053 135.404 216.58 135.394 217.124C135.359 217.742 135.433 218.362 135.615 218.954L135.617 218.961C135.646 219.054 135.65 219.153 135.627 219.248C135.605 219.343 135.558 219.43 135.491 219.501C135.424 219.571 135.339 219.622 135.246 219.649C135.152 219.676 135.053 219.677 134.959 219.653L129.753 218.309L128.452 217.969C128.314 217.921 128.166 217.907 128.02 217.928C127.875 217.949 127.737 218.004 127.618 218.089C127.513 218.17 127.437 218.281 127.399 218.408C127.361 218.535 127.363 218.67 127.406 218.796C127.518 219.158 127.702 219.494 127.948 219.782L127.898 219.729C128.193 219.987 128.506 220.223 128.835 220.437C129.167 220.653 129.514 220.848 129.872 221.017C130.572 221.358 131.332 221.558 132.109 221.603L132.113 221.604C132.23 221.609 132.341 221.661 132.42 221.748C132.499 221.835 132.541 221.95 132.536 222.068C132.534 222.092 132.531 222.116 132.527 222.14C132.477 222.384 132.445 222.632 132.429 222.881C132.414 223.133 132.416 223.386 132.436 223.638C132.468 224.12 132.613 224.589 132.86 225.005L132.864 225.012C132.903 225.074 132.924 225.145 132.927 225.219C132.943 225.883 133.019 226.544 133.155 227.194C133.257 227.815 133.506 228.402 133.881 228.906L133.884 228.908C133.932 228.964 133.962 229.032 133.971 229.105C133.98 229.178 133.967 229.251 133.934 229.317C133.854 229.496 133.81 229.689 133.803 229.885C133.795 230.1 133.819 230.314 133.876 230.521C133.938 230.735 134.025 230.94 134.137 231.133C134.253 231.331 134.387 231.519 134.536 231.694L134.516 231.674L136.845 233.97L137.427 234.544L137.718 234.831C137.764 234.875 137.82 234.934 137.858 234.966C137.886 234.99 137.918 235.009 137.952 235.022C138.442 235.154 138.95 235.212 139.458 235.194C141.64 235.121 143.824 235.21 145.993 235.459C147.09 235.616 148.157 235.935 149.16 236.407C149.644 236.669 150.115 236.955 150.57 237.265C151.019 237.563 151.49 237.835 151.952 238.118C153.815 239.231 155.715 240.284 157.618 241.332C161.418 243.437 165.263 245.457 169.153 247.394C173.036 249.334 176.939 251.256 180.915 252.944L182.407 253.566L183.91 254.119L184.654 254.322C184.903 254.399 185.158 254.458 185.416 254.497C185.94 254.585 186.469 254.655 186.999 254.709C189.116 254.934 191.254 254.899 193.363 254.605C195.458 254.32 197.478 253.628 199.308 252.566C201.121 251.489 202.642 249.981 203.734 248.175C204.881 246.393 205.448 244.316 206.127 242.239C206.784 240.167 207.423 238.089 208.044 236.005C209.28 231.837 210.48 227.654 211.561 223.439C211.562 223.432 211.566 223.424 211.57 223.418C211.575 223.412 211.581 223.407 211.587 223.403C211.594 223.399 211.601 223.396 211.609 223.395C211.616 223.394 211.624 223.394 211.631 223.396C211.646 223.4 211.658 223.409 211.666 223.422C211.674 223.434 211.677 223.45 211.675 223.464V223.464Z" fill="#020202"/>
<path d="M189.781 238.42L186.352 237.695C186.276 237.679 186.209 237.633 186.167 237.568C186.124 237.503 186.109 237.423 186.125 237.347C186.142 237.271 186.187 237.204 186.252 237.161C186.317 237.119 186.397 237.104 186.473 237.12C186.489 237.124 186.504 237.128 186.52 237.134L189.781 238.42ZM135.093 219.121C136.156 219.153 137.214 219.281 138.253 219.506C138.769 219.616 139.284 219.728 139.793 219.864C140.307 219.988 140.803 220.162 141.328 220.267C140.797 220.372 140.252 220.388 139.715 220.315C139.186 220.264 138.659 220.186 138.138 220.079C137.09 219.878 136.068 219.557 135.093 219.121V219.121ZM132.099 222.043C132.917 222.106 133.713 222.343 134.433 222.738C134.8 222.931 135.141 223.169 135.447 223.449C135.775 223.72 136.014 224.084 136.133 224.493C135.839 224.231 135.518 224.003 135.173 223.814C134.84 223.623 134.505 223.431 134.158 223.254C133.448 222.891 132.76 222.487 132.099 222.043V222.043ZM132.526 225.227C133.114 225.431 133.662 225.737 134.143 226.131C134.64 226.506 135.065 226.968 135.399 227.493C134.811 227.291 134.263 226.985 133.782 226.59C133.287 226.214 132.862 225.752 132.526 225.227V225.227ZM133.627 229.147C134.147 229.286 134.633 229.53 135.056 229.863C135.492 230.179 135.858 230.581 136.133 231.045C135.612 230.908 135.126 230.664 134.704 230.329C134.268 230.013 133.902 229.61 133.627 229.147ZM138.516 233.434C138.335 233.345 138.181 233.21 138.069 233.042C137.956 232.874 137.891 232.679 137.879 232.477C137.837 232.076 137.885 231.671 138.02 231.291L138.012 231.313C138.053 231.119 138.075 230.92 138.077 230.721C138.095 230.574 138.068 230.425 137.998 230.295C137.835 230.098 137.713 229.869 137.642 229.623C137.562 229.39 137.522 229.145 137.521 228.899C137.516 228.643 137.57 228.388 137.678 228.156C137.796 227.979 137.904 227.796 138.001 227.607C138.136 227.206 138.182 226.781 138.135 226.36C138.35 226.774 138.426 227.246 138.351 227.706C138.293 227.924 138.212 228.136 138.112 228.337C138.059 228.513 138.041 228.696 138.058 228.878C138.088 229.253 138.219 229.613 138.438 229.918C138.604 230.16 138.674 230.455 138.635 230.746C138.613 230.984 138.566 231.219 138.495 231.448L138.492 231.458L138.488 231.471C138.421 231.633 138.351 231.794 138.3 231.96C138.251 232.125 138.218 232.294 138.202 232.465C138.179 232.639 138.195 232.817 138.249 232.985C138.304 233.153 138.395 233.306 138.516 233.434V233.434ZM133.245 218.653C132.402 217.939 131.586 217.199 130.775 216.454C129.969 215.705 129.162 214.956 128.377 214.187C126.791 212.663 125.245 211.1 123.717 209.52C123.665 209.466 123.624 209.402 123.596 209.332C123.569 209.262 123.555 209.187 123.556 209.112C123.557 209.036 123.573 208.962 123.603 208.893C123.633 208.824 123.676 208.762 123.73 208.709L123.759 208.683L123.768 208.675C124.507 208.053 125.259 207.446 126.012 206.841L126.017 206.836C126.13 206.746 126.274 206.702 126.418 206.713C126.562 206.724 126.697 206.79 126.794 206.897C128.211 208.453 129.591 210.044 130.95 211.653C131.631 212.456 132.301 213.27 132.961 214.093C133.622 214.915 134.275 215.744 134.904 216.595C134.112 215.894 133.343 215.171 132.581 214.442C131.822 213.711 131.07 212.972 130.327 212.226C128.843 210.731 127.38 209.218 125.953 207.671L126.735 207.727C125.994 208.346 125.252 208.965 124.496 209.567L124.548 208.723C126.058 210.32 127.549 211.934 129.001 213.588C129.734 214.407 130.446 215.247 131.159 216.086C131.867 216.93 132.569 217.779 133.245 218.653ZM129.348 204.018C128.825 202.864 128.404 201.666 128.088 200.439C127.747 199.219 127.514 197.971 127.392 196.709C127.916 197.863 128.338 199.06 128.652 200.288C128.992 201.508 129.225 202.756 129.348 204.018V204.018ZM134.686 206.426C135.12 205.7 135.646 205.034 136.252 204.444C136.84 203.836 137.506 203.308 138.231 202.874C137.798 203.601 137.272 204.268 136.665 204.857C136.076 205.464 135.411 205.992 134.686 206.426ZM138.965 211.938C139.721 211.732 140.503 211.634 141.287 211.646C142.071 211.633 142.853 211.731 143.61 211.938C142.853 212.145 142.071 212.244 141.287 212.231C140.503 212.242 139.721 212.144 138.965 211.938ZM98.4613 255.991C98.5249 255.61 98.6212 255.236 98.7491 254.871C98.8181 254.685 98.9061 254.506 99.0119 254.338C99.1232 254.138 99.305 253.988 99.5215 253.916C99.6435 253.894 99.7689 253.905 99.8855 253.947C100.002 253.989 100.106 254.061 100.186 254.156C100.333 254.305 100.46 254.472 100.565 254.652C100.764 254.996 100.934 255.354 101.076 255.725C101.61 257.186 101.995 258.697 102.226 260.236C102.588 263.311 102.604 266.418 102.274 269.496C102.112 271.031 101.902 272.562 101.587 274.082C101.423 274.841 101.238 275.597 101.002 276.348C100.786 277.141 100.441 277.893 99.9794 278.572C99.8214 278.784 99.6172 278.957 99.3824 279.078C99.2237 279.151 99.0486 279.18 98.8751 279.162C98.7114 279.139 98.5553 279.079 98.4198 278.984C98.0671 278.688 97.8017 278.302 97.6524 277.866C97.3755 277.129 97.1666 276.369 97.0283 275.594C96.7647 274.079 96.5901 272.551 96.5054 271.016C96.8475 272.509 97.1426 274.01 97.5851 275.459C97.7786 276.176 98.0341 276.875 98.3488 277.547C98.4699 277.83 98.6539 278.08 98.8866 278.28C98.9757 278.317 98.9505 278.307 99.0062 278.284C99.1012 278.213 99.183 278.126 99.2478 278.027C99.5955 277.41 99.8556 276.747 100.021 276.057C100.217 275.343 100.369 274.607 100.501 273.868C100.774 272.389 100.972 270.888 101.111 269.382C101.27 267.878 101.362 266.366 101.407 264.856C101.462 263.35 101.434 261.842 101.323 260.339C101.271 259.589 101.144 258.864 101.017 258.111C100.887 257.366 100.734 256.626 100.536 255.905C100.444 255.548 100.325 255.198 100.179 254.86C100.038 254.55 99.8136 254.185 99.5805 254.219C99.3174 254.259 99.077 254.631 98.9089 254.944C98.7299 255.279 98.5802 255.63 98.4613 255.991V255.991ZM208.718 234.923L211.978 237.402L213.662 238.582C214.226 238.971 214.768 239.39 215.357 239.739C216.52 240.459 217.648 241.231 218.856 241.868C219.457 242.19 220.033 242.558 220.645 242.857L222.475 243.766C224.935 244.932 227.476 245.916 230.079 246.712C232.68 247.534 235.397 247.93 238.125 247.886L237.96 248.07C237.975 246.477 237.966 244.884 237.945 243.291C237.931 241.698 237.874 240.105 237.838 238.512L237.703 233.732L237.614 228.953L238.484 229.361C237.469 230.129 236.365 230.774 235.198 231.282L234.336 231.657L233.455 231.981C232.873 232.215 232.264 232.36 231.667 232.544C229.253 233.177 226.767 233.49 224.273 233.474L222.411 233.431C221.792 233.397 221.177 233.308 220.561 233.249C219.324 233.158 218.118 232.871 216.901 232.668C215.691 232.426 214.506 232.08 213.316 231.768L209.828 230.575L210.184 230.386C209.715 231.865 209.228 233.365 208.718 234.923ZM208.606 234.956C208.933 233.431 209.283 231.846 209.651 230.241L209.713 229.972L210.008 230.052L213.521 231.006L215.3 231.369C215.893 231.481 216.476 231.653 217.077 231.716C218.275 231.867 219.461 232.102 220.665 232.142C221.266 232.178 221.865 232.23 222.464 232.255L224.263 232.263C226.654 232.228 229.033 231.925 231.356 231.36C231.928 231.197 232.514 231.073 233.07 230.862L233.915 230.573L234.739 230.235C235.822 229.792 236.851 229.225 237.805 228.545L238.694 227.885L238.675 228.953L238.586 233.732L238.451 238.512C238.415 240.105 238.359 241.698 238.344 243.291C238.323 244.884 238.314 246.477 238.329 248.07L238.331 248.243L238.164 248.255C236.774 248.334 235.379 248.298 233.995 248.146L232.959 248.034L231.93 247.873C231.239 247.781 230.565 247.613 229.883 247.474C227.166 246.857 224.53 245.928 222.025 244.705L220.171 243.749C219.551 243.435 218.97 243.051 218.372 242.698C217.165 242.008 216.04 241.191 214.906 240.393C214.33 240.009 213.798 239.562 213.259 239.127L211.648 237.817C210.597 236.868 209.568 235.882 208.606 234.956Z" fill="#020202"/>
<path d="M100.949 256.271C99.0636 256.372 97.1735 256.34 95.2926 256.176C93.4062 256.027 91.531 255.76 89.6778 255.377C87.8162 255.002 85.985 254.49 84.1992 253.844C82.4112 253.18 80.6866 252.356 79.0464 251.381C78.642 251.128 78.2113 250.91 77.8282 250.628L76.6708 249.79C75.8995 249.222 75.1247 248.705 74.3519 248.16L69.7212 244.918L60.4956 238.388L60.5792 238.437C60.3497 238.336 60.1113 238.257 59.8671 238.201C59.6687 238.148 59.4614 238.137 59.2586 238.17C59.1299 238.22 59.1471 238.197 59.1056 238.344C59.0745 238.393 59.1041 238.526 59.0928 238.614L59.151 238.962L59.1517 238.966C59.1769 239.117 59.1473 239.272 59.0682 239.403C59.014 239.506 58.9724 239.615 58.9446 239.728C58.9115 239.861 58.8937 239.997 58.8915 240.134C58.8926 240.422 58.9487 240.707 59.0568 240.973L58.8652 241.637C58.9361 241.579 58.9011 241.607 58.9119 241.597L58.9038 241.613C58.893 241.637 58.8851 241.662 58.8805 241.688C58.8651 241.774 58.8641 241.862 58.8774 241.949C58.9137 242.185 58.985 242.414 59.0889 242.629L59.1034 243.066C59.123 243.005 59.0977 243.107 59.1042 243.149C59.1046 243.212 59.1099 243.275 59.12 243.337C59.1439 243.481 59.1839 243.623 59.2394 243.758C59.3621 244.062 59.5218 244.349 59.7147 244.613L59.7499 245.225C59.762 245.204 59.7719 245.182 59.7795 245.16C59.7811 245.153 59.7816 245.154 59.7816 245.154C59.7817 245.161 59.7811 245.167 59.7798 245.174C59.7804 245.206 59.7827 245.237 59.7868 245.269C59.8043 245.361 59.831 245.452 59.8666 245.539C59.9575 245.751 60.07 245.953 60.2024 246.143C60.3439 246.348 60.4977 246.546 60.6629 246.733C60.8282 246.924 61.0386 247.125 61.2242 247.321L63.5219 249.688L68.1176 254.421L77.3049 263.894L77.3191 263.909C77.3293 263.92 77.3389 263.931 77.3478 263.943C78.1278 264.994 78.8588 266.06 79.5545 267.163C80.2673 268.265 80.8907 269.423 81.4186 270.625C81.6725 271.162 82.0193 271.649 82.4427 272.064C83.8014 273.347 85.5444 274.144 87.4015 274.334C88.6349 274.446 89.8729 274.177 90.9495 273.564L91.3506 273.33L91.7114 273.036C91.9502 272.844 92.1953 272.642 92.448 272.422C92.6904 272.199 92.9498 271.997 93.224 271.816C93.4879 271.621 93.7664 271.447 94.0569 271.294C96.3702 270.059 99.0454 269.683 101.609 270.234C99.0657 269.825 96.4594 270.302 94.2254 271.586C93.9511 271.743 93.6895 271.921 93.4427 272.118C93.1862 272.301 92.9447 272.505 92.7205 272.727C92.4951 272.938 92.252 273.155 91.9975 273.377L91.6212 273.707L91.1987 273.976C90.0518 274.694 88.7086 275.033 87.3592 274.943C86.0207 274.85 84.7211 274.452 83.5594 273.78C82.3349 273.148 81.3345 272.154 80.6941 270.933C80.1576 269.786 79.5306 268.685 78.8191 267.639C78.1158 266.578 77.3638 265.534 76.5857 264.534L76.6285 264.582L67.3436 255.174L62.7032 250.466L60.3829 248.112C60.1886 247.91 59.9983 247.733 59.8007 247.51C59.5998 247.286 59.4128 247.051 59.2408 246.804C59.0561 246.543 58.9023 246.261 58.7825 245.964C58.7157 245.795 58.6673 245.619 58.6383 245.44C58.6237 245.335 58.618 245.229 58.6213 245.123C58.6244 245.061 58.6317 244.999 58.643 244.938C58.6492 244.902 58.6576 244.867 58.6682 244.832C58.6837 244.776 58.7054 244.721 58.7329 244.67L58.7681 245.281C58.5221 244.937 58.3198 244.564 58.1657 244.17C58.082 243.957 58.0223 243.735 57.9877 243.509C57.9689 243.386 57.96 243.262 57.9611 243.137C57.9592 242.977 57.9841 242.817 58.0348 242.665L58.0493 243.101C57.898 242.777 57.7971 242.432 57.7504 242.077C57.7237 241.868 57.732 241.656 57.7749 241.449C57.8002 241.329 57.8407 241.213 57.8955 241.103C57.9263 241.042 57.9619 240.984 58.002 240.928C58.0575 240.851 58.1241 240.783 58.1997 240.725L58.0081 241.388C57.8478 240.982 57.7677 240.549 57.7722 240.112C57.7774 239.888 57.8086 239.664 57.8652 239.447C57.9241 239.209 58.0208 238.982 58.1514 238.774L58.0687 239.215C58.0402 239.045 58.0097 238.877 57.9883 238.703C57.9733 238.504 57.9861 238.303 58.0264 238.107C58.0697 237.862 58.1849 237.636 58.3573 237.457C58.5297 237.277 58.7516 237.154 58.9944 237.102C59.3633 237.027 59.7441 237.038 60.108 237.134C60.4288 237.209 60.7414 237.316 61.0412 237.453C61.0677 237.465 61.093 237.48 61.1168 237.497L61.125 237.503L70.3169 244.113L74.895 247.441C75.6504 248 76.4314 248.548 77.1658 249.116L78.28 249.962C78.6493 250.249 79.0602 250.466 79.4485 250.722C81.0293 251.711 82.6958 252.554 84.4279 253.242C87.9327 254.585 91.5911 255.485 95.3182 255.92C97.1863 256.152 99.0667 256.269 100.949 256.271Z" fill="#020202"/>
<path d="M58.6101 239.089C58.8152 238.918 59.0792 238.836 59.3446 238.859C59.6093 238.872 59.8674 238.945 60.0989 239.075C60.3258 239.196 60.5322 239.353 60.7104 239.539C60.7935 239.636 60.8801 239.727 60.9576 239.826C61.0248 239.936 61.0995 240.036 61.1568 240.15C60.7251 239.882 60.3539 239.584 59.9406 239.376C59.7416 239.264 59.5298 239.177 59.3097 239.117C59.0817 239.055 58.8425 239.045 58.6101 239.089ZM58.5327 241.181C58.5526 241.044 58.6992 240.958 58.8288 240.919C58.962 240.893 59.0985 240.889 59.233 240.907C59.4902 240.943 59.7394 241.023 59.97 241.143C60.4234 241.369 60.827 241.684 61.1568 242.069C60.9227 241.983 60.6937 241.883 60.4711 241.771L59.8208 241.448C59.6121 241.34 59.3971 241.244 59.1769 241.161C59.0715 241.119 58.9604 241.093 58.8473 241.084C58.7909 241.073 58.7329 241.077 58.6781 241.094C58.6233 241.111 58.5734 241.141 58.5327 241.181V241.181ZM58.5693 242.865C58.6919 242.728 58.8526 242.63 59.0309 242.584C59.2093 242.538 59.3971 242.547 59.5705 242.609C59.9183 242.696 60.2468 242.847 60.539 243.055C60.8287 243.251 61.0961 243.478 61.3366 243.732C61.5804 243.979 61.8 244.25 61.9921 244.539C61.6977 244.349 61.4385 244.128 61.1639 243.928C60.8929 243.725 60.6273 243.52 60.3501 243.337C60.0836 243.147 59.7973 242.987 59.4963 242.859C59.3502 242.795 59.1938 242.759 59.0347 242.751C58.8708 242.731 58.7053 242.771 58.5693 242.865V242.865ZM59.2417 244.947C59.2434 244.867 59.2648 244.789 59.3041 244.719C59.3434 244.649 59.3993 244.59 59.4668 244.547C59.6148 244.467 59.7855 244.439 59.9509 244.47C60.2548 244.524 60.5419 244.649 60.7897 244.834C61.2713 245.175 61.6801 245.609 61.9922 246.111C61.7344 245.961 61.5158 245.775 61.2812 245.611C61.051 245.443 60.8292 245.268 60.5987 245.115C60.3834 244.954 60.1473 244.822 59.8968 244.724C59.7804 244.667 59.6461 244.659 59.5234 244.7C59.4006 244.742 59.2993 244.831 59.2417 244.947V244.947Z" fill="#020202"/>
<path d="M96.2327 270.527C94.6888 270.864 93.2925 271.686 92.2471 272.873C88.3354 276.731 82.2232 273.547 81.0619 270.791C79.9006 268.035 76.9667 264.238 76.9667 264.238C76.2667 263.547 75.3265 262.602 74.2527 261.515C78.4859 257.933 77.0555 249.586 77.0555 249.586C74.1493 243.956 67.2658 242.551 67.2658 242.551C68.1388 249.565 64.573 251.608 64.5727 251.608C62.1122 249.075 60.3111 247.213 60.3111 247.213C58.8748 245.621 59.2415 244.947 59.2415 244.947C58.2941 243.6 58.5692 242.865 58.5692 242.865C57.9885 241.579 58.5325 241.181 58.5325 241.181C58.3805 240.851 58.3082 240.489 58.3217 240.125C58.3351 239.762 58.4339 239.407 58.6099 239.088L58.5692 238.68L53.5278 243.443C52.8806 244.054 52.4131 244.831 52.176 245.69C51.9389 246.549 51.9414 247.456 52.1832 248.314C53.4737 252.893 57.0201 261.403 65.9038 263.871C65.9038 263.871 77.6391 269.872 68.7153 273.669L80.9397 285.918C80.9397 285.918 81.449 283.366 83.7411 282.799C85.8655 282.239 87.75 281.001 89.109 279.272C89.5915 278.675 90.1148 277.977 90.6755 277.163C91.5265 275.914 92.5325 274.777 93.6693 273.782C94.6751 272.912 95.7956 272.154 96.5053 272.322L96.2327 270.527Z" fill="#020202"/>
<path d="M93.7404 255.87C93.7404 255.87 93.6846 256.111 93.6035 256.533" stroke="#020202" stroke-width="1.688" stroke-linecap="round" stroke-linejoin="round"/>
<path d="M93.3851 257.811C92.9179 260.879 92.4137 266.803 94.823 269.763" stroke="#020202" stroke-width="1.688" stroke-linecap="round" stroke-linejoin="round" stroke-dasharray="2.15 2.15"/>
<path d="M95.2661 270.241C95.431 270.397 95.6072 270.541 95.7931 270.672" stroke="#020202" stroke-width="1.688" stroke-linecap="round" stroke-linejoin="round"/>
<path d="M95.1201 265.626C95.4532 265.979 95.847 266.27 96.2825 266.483C96.49 266.569 96.7148 266.603 96.9382 266.584C97.1818 266.555 97.4201 266.492 97.6465 266.397C97.4771 266.609 97.2474 266.764 96.9879 266.841C96.7138 266.923 96.42 266.908 96.1557 266.799C95.9031 266.69 95.6797 266.524 95.5038 266.312C95.3287 266.113 95.1978 265.88 95.1201 265.626ZM171.033 164.844C171.228 164.483 171.481 164.158 171.782 163.88C172.079 163.597 172.408 163.352 172.764 163.149C173.127 162.948 173.518 162.801 173.923 162.713C174.332 162.628 174.756 162.645 175.157 162.761C174.783 162.872 174.416 163.002 174.056 163.15C173.713 163.31 173.377 163.473 173.048 163.66C172.384 164.028 171.75 164.448 171.033 164.844ZM173.478 167.885C173.742 167.876 173.992 167.764 174.176 167.574C174.359 167.384 174.462 167.129 174.462 166.865C174.462 166.6 174.359 166.345 174.176 166.155C173.992 165.965 173.742 165.853 173.478 165.844C173.214 165.853 172.964 165.965 172.78 166.155C172.597 166.345 172.494 166.6 172.494 166.865C172.494 167.129 172.597 167.384 172.78 167.574C172.964 167.764 173.214 167.876 173.478 167.885ZM181.994 166.007C182.22 166.184 182.476 166.317 182.749 166.401C182.852 166.393 182.843 166.399 182.89 166.316C182.919 166.275 182.942 166.23 182.957 166.183C182.984 166.126 183.003 166.065 183.013 166.002C183.056 165.868 183.089 165.73 183.11 165.59C183.153 165.451 183.16 165.298 183.198 165.15C183.254 164.838 183.335 164.53 183.441 164.231C183.561 164.534 183.633 164.853 183.653 165.178C183.686 165.51 183.659 165.846 183.573 166.169C183.551 166.258 183.517 166.345 183.473 166.426C183.407 166.577 183.3 166.708 183.164 166.802C183.102 166.833 183.039 166.859 182.974 166.88C182.851 166.904 182.724 166.889 182.611 166.834C182.44 166.754 182.296 166.625 182.198 166.464C182.103 166.325 182.034 166.17 181.994 166.007ZM181.057 163.374C180.907 163.085 180.826 162.764 180.823 162.438C180.798 162.072 180.911 161.71 181.14 161.423C181.29 161.267 181.487 161.165 181.701 161.134C181.891 161.117 182.083 161.147 182.258 161.222C182.411 161.292 182.554 161.379 182.686 161.483C182.805 161.594 182.914 161.714 183.013 161.843C182.858 161.818 182.705 161.783 182.555 161.739C182.41 161.712 182.269 161.68 182.139 161.663C182.04 161.638 181.936 161.639 181.837 161.666C181.738 161.692 181.647 161.744 181.573 161.815C181.424 162.014 181.322 162.244 181.274 162.488L181.057 163.374ZM171.807 172.376C172.084 172.199 172.38 172.053 172.688 171.94C172.819 171.89 172.94 171.839 173.065 171.783C173.211 171.709 173.349 171.62 173.478 171.519C173.509 171.619 173.517 171.724 173.5 171.827C173.483 171.93 173.442 172.028 173.381 172.113C173.261 172.279 173.096 172.408 172.905 172.483C172.727 172.553 172.535 172.581 172.345 172.565C172.151 172.556 171.965 172.49 171.807 172.376ZM173.943 174.214C174.911 173.657 175.931 173.196 176.988 172.836C177.041 172.816 177.099 172.813 177.154 172.826C177.209 172.839 177.259 172.868 177.298 172.909C177.336 172.95 177.362 173.002 177.372 173.057C177.382 173.113 177.376 173.171 177.353 173.223C177.129 173.763 176.854 174.28 176.531 174.768C176.368 175.017 176.18 175.248 175.97 175.459C175.859 175.568 175.734 175.66 175.596 175.732C175.523 175.769 175.442 175.789 175.36 175.791C175.321 175.788 175.282 175.776 175.247 175.758C175.212 175.739 175.182 175.714 175.157 175.683C175.216 175.711 175.283 175.718 175.347 175.702C175.41 175.686 175.466 175.648 175.505 175.596C175.599 175.499 175.679 175.391 175.745 175.274C175.887 175.036 176.017 174.79 176.133 174.538C176.368 174.032 176.599 173.513 176.815 173L177.18 173.386C176.13 173.766 175.046 174.043 173.943 174.214Z" fill="#020202"/>
</svg>
